<mxfile host="app.diagrams.net" modified="2022-06-08T07:39:37.914Z" agent="5.0 (Windows NT 10.0; Win64; x64) AppleWebKit/537.36 (KHTML, like Gecko) Chrome/102.0.5005.63 Safari/537.36" etag="pyAP41IZozmv3pX_1S9S" version="19.0.2" type="github">
  <diagram id="wf1PzRMaRmpDCSiPXFWi" name="Page-1">
    <mxGraphModel dx="1185" dy="688" grid="1" gridSize="10" guides="1" tooltips="1" connect="1" arrows="1" fold="1" page="1" pageScale="1" pageWidth="827" pageHeight="1169" math="0" shadow="0">
      <root>
        <mxCell id="0" />
        <mxCell id="1" parent="0" />
        <mxCell id="C6Sp4-k7lOcV-1RX9fJF-1" value="" style="shape=image;verticalLabelPosition=bottom;labelBackgroundColor=default;verticalAlign=top;aspect=fixed;imageAspect=0;image=data:image/png,iVBORw0KGgoAAAANSUhEUgAAAgAAAAIACAYAAAD0eNT6AAAEs2lUWHRYTUw6Y29tLmFkb2JlLnhtcAAAAAAAPD94cGFja2V0IGJlZ2luPSLvu78iIGlkPSJXNU0wTXBDZWhpSHpyZVN6TlRjemtjOWQiPz4KPHg6eG1wbWV0YSB4bWxuczp4PSJhZG9iZTpuczptZXRhLyIgeDp4bXB0az0iWE1QIENvcmUgNS41LjAiPgogPHJkZjpSREYgeG1sbnM6cmRmPSJodHRwOi8vd3d3LnczLm9yZy8xOTk5LzAyLzIyLXJkZi1zeW50YXgtbnMjIj4KICA8cmRmOkRlc2NyaXB0aW9uIHJkZjphYm91dD0iIgogICAgeG1sbnM6dGlmZj0iaHR0cDovL25zLmFkb2JlLmNvbS90aWZmLzEuMC8iCiAgICB4bWxuczpleGlmPSJodHRwOi8vbnMuYWRvYmUuY29tL2V4aWYvMS4wLyIKICAgIHhtbG5zOnBob3Rvc2hvcD0iaHR0cDovL25zLmFkb2JlLmNvbS9waG90b3Nob3AvMS4wLyIKICAgIHhtbG5zOnhtcD0iaHR0cDovL25zLmFkb2JlLmNvbS94YXAvMS4wLyIKICAgIHhtbG5zOnhtcE1NPSJodHRwOi8vbnMuYWRvYmUuY29tL3hhcC8xLjAvbW0vIgogICAgeG1sbnM6c3RFdnQ9Imh0dHA6Ly9ucy5hZG9iZS5jb20veGFwLzEuMC9zVHlwZS9SZXNvdXJjZUV2ZW50IyIKICAgdGlmZjpJbWFnZUxlbmd0aD0iNTEyIgogICB0aWZmOkltYWdlV2lkdGg9IjUxMiIKICAgdGlmZjpSZXNvbHV0aW9uVW5pdD0iMiIKICAgdGlmZjpYUmVzb2x1dGlvbj0iOTYuMCIKICAgdGlmZjpZUmVzb2x1dGlvbj0iOTYuMCIKICAgZXhpZjpQaXhlbFhEaW1lbnNpb249IjUxMiIKICAgZXhpZjpQaXhlbFlEaW1lbnNpb249IjUxMiIKICAgZXhpZjpDb2xvclNwYWNlPSIxIgogICBwaG90b3Nob3A6Q29sb3JNb2RlPSIzIgogICBwaG90b3Nob3A6SUNDUHJvZmlsZT0ic1JHQiBJRUM2MTk2Ni0yLjEiCiAgIHhtcDpNb2RpZnlEYXRlPSIyMDE5LTExLTE1VDE0OjEzOjI4KzAxOjAwIgogICB4bXA6TWV0YWRhdGFEYXRlPSIyMDE5LTExLTE1VDE0OjEzOjI4KzAxOjAwIj4KICAgPHhtcE1NOkhpc3Rvcnk+CiAgICA8cmRmOlNlcT4KICAgICA8cmRmOmxpCiAgICAgIHN0RXZ0OmFjdGlvbj0icHJvZHVjZWQiCiAgICAgIHN0RXZ0OnNvZnR3YXJlQWdlbnQ9IkFmZmluaXR5IFBob3RvIDEuNy4zIgogICAgICBzdEV2dDp3aGVuPSIyMDE5LTExLTE1VDE0OjEzOjI4KzAxOjAwIi8+CiAgICA8L3JkZjpTZXE+CiAgIDwveG1wTU06SGlzdG9yeT4KICA8L3JkZjpEZXNjcmlwdGlvbj4KIDwvcmRmOlJERj4KPC94OnhtcG1ldGE+Cjw/eHBhY2tldCBlbmQ9InIiPz7ougKKAAABgGlDQ1BzUkdCIElFQzYxOTY2LTIuMQAAKJF1kc8rRFEUxz9maIRpFAsLahJWaFBiYzFiKCzGUwabN2/em1Ez4/XeSLJVtooSG78W/AVslbVSREo2NtbEBj3nzUyNZM7t3PO533vP6d5zwaOktYxdGYJMNmdFI+HgbGwu6HumlgB+fLSomm1OTo8qlLWPOyrceNPl1ip/7l+rTei2BhXVwkOaaeWEx4QnVnKmy9vCjVpKTQifCndackHhW1ePF/jF5WSBv1y2lOgweOqFg8lfHP/FWsrKCMvLacukl7XifdyX1OnZmWmJreLN2ESJECbIOCMM008PgzL300Uv3bKiTH4onz/FkuRqMpusYrFIkhQ5OkVdluq6REN0XUaaVbf/f/tqG329hep1Yah6cpy3dvBtwfem43weOs73EXgf4SJbyl86gIF30TdLWts+BNbh7LKkxXfgfAOaHkzVUvOSV9xjGPB6Av4YNFxDzXyhZ8V9ju9BWZOvuoLdPeiQ84GFHzJ5Z85KxpnUAAAACXBIWXMAAA7EAAAOxAGVKw4bAAAgAElEQVR4nOydeZwcZZn4v09Vd889mWRy3yGEkACBEBBIYiKoiCeKrhrXVXS97wUR4afuri5E8HY98FYUs+666HohlwpyhDMcOQi575BkMvfVXV3P74+qnqnprkkmx3RVT7/fz2c+M/NW9fQz1VXv+7zPCQaDwWAwGAwGg8FgMBgMBoPBYDAYDAaDwWAwGAwGg8FgMBgMBoPBYDAYDAaDwWAwGAwGg8FgMBgMBoPBYDAYDAaDwWAwGIqHRC2AYXhQ1QqgBrD9r0Tg59znrkAv0Al0ikgmAlENBoPBEAFGARgBqOpkYBIwF1gErAAmHsef2gesAtYDe4HtwEYR0ZMjqcFgMBjiglEASgxVTeIt8ouAxcDlQPUwv+0uPMXg/0Tk4WF+L4PBYDAUAaMAxBxVTeAt8O8AXul/RUkTcA9wB/B7oFtEeqIVyWAwGAzHilEAYoi/6N+IZ8qfchx/4ng/1+M19b+AZyG43igDBoPBUBoYBSBG+L78G/AW/tQQXiJ4i3bh5+j2opkuwAHNgut/1yyot86rCGJXgl0NiWrEGvQtj0Ux2I2nDFwnIu4xvM5gMBgMRcQoADFAVc8EPgW8fQinF3xm2nMQunehnbvQzq24nbug5wVwOnCdXoSMrwA44Dq59R+xBKwqSI1C7TqsqnFYVZPQivFYNTOQujlI1SQQK1Tso8iZCyi8zmQXGAwGQ/wwCkCEqOo0YCXwtiOcVvAZuZ07oXkNbvOTZA+tRjt3IE43aBrNptFsL0L22OXBBiuJ2ClEkpCohORoZMx52JMvw574UkjUDv7ycHbS7x4w2QQGg8EQE4wCUGR8//5KPDP/5EFO6/9c1EGdTug9hLvnj2S330a2ZT2gIAqqyHG77ocqs3hWAKsCe8xCrKmvwZr4Cs9aYFd6boS8l4T8mYP0WwS6h1Vgg8FgMBwVowAUCVW16F/4pw5yWt/noT370ZZncQ89gvvCX8g2PYFouhiiDgmVJNaouVhjl2KNfzEy6kysutkgdt8pg7w0l1J4nbEIGAwGQ3QYBaAIqGolXurc4kFO6V/4u/aQ3XYr7v670Y5NaM+hosh4Iqhdg1V3CtKwkMSMf8Aavwz6AwoHW+QfBN4uIjuKI6XBYDAYghgFYBhRVaE/nW963uEB1167dpHd+E2yO36Jm+4ETQ+7af9ko9hIohZr/FKSZ38BqT+d/H8z7yUmY8BgMBgiwigAw4SqzgB+DizNO9S/23cz0L0Pd+d/42z8Gtp7uKgyDidqV5KYegX26f+CVXeKl2oYOJx3ulEEDAaDocgYBeAk4+/6c77+aXmHveutWbR5Ddnd/0d2zx9x254rud3+kEmOxp72BuzpV2CNvziYUhj2Dz8EXCYiHcUT0GAwGMoTowCcRFS1BvgzsCTksHetsz1knvs62W2/QDu3H1e6XqmhYmFVjsca/xISZ/0bUjNjwOG8058ClhklwGAwGIYXowCcJFR1DHAXcG7IYUEV9+CDZJ68Grd9A+KWX20cxULqZpM89+vYE5YHMwa8w/2Y2gEGg8EwzBgF4CTgV/JbBZwRGO739XfuxHnuazjbbkWyXUWXL26oVUVi9rtIzHkfUnvqkVIHHwAuERGnuBIaDAbDyMcoACdAwN//PqAh77CgLtk9fyC78atkmx5D1MS3DaB2FsnTPoo18+1Isg7C4wIeBpYbJcBgMBhOLkYBOE78xf9+Cv393jV1OnHWryS77WclkcsfFWrXkZj5VhLnrEQSNX3Deac9iBcXYNwBBoPBcJIwCsBxcLTFX9PNOM98BmfrL2JVvS+uqFjI6POpWLoKqZpI7jLmnfY1vJiA3qILaDAYDCMQowAcI34t/78ycPHv9/e3rsNZ+wWc3b8bual9w4Q0nEVy0TewGs8HSeSGgxfxUeBi00vAYDAYThyjABwD/uJ/H3BRYNi/hi7urtvJrLsJbV0bgXSlj6ogdXNILVyJNfkywIJCS8ATeO4AowQYDAbDCWAUgCEyiNnfL+zjBfs5T3wCt3s/xlV9giRHkTz3q9gzB3RJDl5UExNgMBgMJ4h19FMMPisJLfDj4h58EOfxD6I9+8zifzLItJJ+5L04m38Ibp/LP6isLgFW+kqZwWAwGI4DM4EOAVWdDfyF/tK+/s7fwdn5a7JPXWMi/YcBSY4iceb12LPfE+wlYCwBBoPBcBIwFoCj4C/+95Nf119dsttvI/v0p83iP0xoppXMupVkt/wECK2hsATPMmMwGAyGY8RYAI6Aqo7DW/znBoYFwD38OJkH34rbtddE+w8zaldS8aJbsKa/ZcCw/30XcJaItBVfMoPBYChdjAVgEPyI//9j4OLv0b2XzGMfRLv2mMW/CEi2h/RjH8U9cD8UVlOcBvzRxAMYDAbDsWEUgMFZCVwY+F0A0Y4tpB9+J9piUv2KiTodZNZ8Cm3bEHZ4CXCfUQIMBoNh6BgFIARVbQRWBIa80nQ9B8msuYbsoYeiEayMERS3ZS3Oupsg0+YNDXRhLQVujEQ4g8FgKEGMApCHv4v8DTB54IEM2U3fIbvvXtPUJyKELM6u/8XZ9vMwVwDAClWtL7ZcBoPBUIoYBSCAv/jfh7ebzOEF/R16lOzWH5ra/hEjuGSeup7svjvw4wCDVoDpwB+MK8BgMBiOjlEABnIjAxd/j94mnCc/adL9YoJomsyT16ItT4cdNq4Ag8FgGAJGAfDxo/5X5A0LKL1P/AvZ5tDFxhAR2rUNZ9P30f54gCD5n6PBYDAY8jAKQD8r8UzIOQSU7PbbcPf9yZT4jRmiLs6OX6NNjxDmClDVs6KRzGAwGEoDowDQ5/sviPp32zfjbPwm4nRGI5jhiEi2HWfdSrTnYNjhH6hqRbFlMhgMhlIhcfRTyoKV5Ef9uxncXbfjtm4syXKJKhZW/emQGodVOQZNjsJKjYZUA2S70Uw79BxGu7aj7RvR3sNRi3xcZA+uhue+Quqcm8BT3HKmmhfhxQJcHZVsBoPBEGdKcW076ajqDvIb/fQeoufuZdC5LTK5jhm7Gpl8GYkpr8UatxgS9YhYkPsi911Rdb1UOnUQ10G7dpHdfzfu3jvIHlxdWi4Pq4KKl/8daeiz+ueE3w+cbsoEGwwGQyFlrwCo6puA/w4MCeriPPNZnOe+GpVYQ0LFwqpohLr52DPegj31tUjF2BP8owpOK86O/yG77Va0cyuabol97QN76utIXHgrYlfAwI6B3xGRj0QklsFgMMSWslYA/Mj/+8kr+esefIDe+y9HnK6IJDsyimDVz8We8mqsya/BGrMQrIr+wydG/z3hdOAefgL3hb+R3XcHbut6xM2c4J8fJlKjSV30M6yJL4eB16AZmCAiTjSCGQwGQzwpdwXgSwz0EQtA5r7LcfbfHc9GP6kGEqd9DHvaG5DaWcGFH0588Q/Sf2+4GbRrN9kX7iW79vODBd1Fi1jYp7yL5Nk3QrIeBl6LL4vIpyKSzGAwGGJJ2SoAfuT/LvqD/7zI/4MPkH7grZBuiky2MFQFq2YyyfNvQcYvR6zkgMPD+Nb994hmcbv3kX7oneihh2MXJyAVY0hdci9SfzoMvCZ7RGTaIC8zGAyGsqSc0wALI/81Q3bHr9BMazQShaAqSNUEEqe9n4pXPIY18WXBxV8pXPy7gB8BlwFjgAagDqgBqoEKoMr/uc4/Pg64CdgZJkLfe4iNVT2VimX/S/K0D3gZBTFCew/jbLkV1IGByu0UVT01IrEMBoMhlpSzBaAg8l/b1tP74NugbWN0guUh9fNJLrwJa8JykAELfz77gVXA9SLSe7zvp6o1eMrRCqAxTCQAst24++/GWf8l3MOPH+/bnXSkYgyplz+A1MyCgdfpmyLyiYjEMhgMhthRlhYA3/w/0CSsLu6hR9H2LdEIFUb1TJIX/ghrwsVHWvz3A18DZonI1Sey+AOISKeIfAyYBHwF2Jt3imcRsKuwpryW5OKfIxNeeiJveVLR3sNkt/w492tQwV3hB30aDAaDgTJVAAgrgKQO2b13IBp9sLiKBXXzqLjkDqyGs0HsvkOB0/biLdDTT8bCn4+IOCJyDV555C8Bu/PFBEFqZpJa9HWsxguJSxO+7LafQWEGxzg8y4bBYDAYKF8F4Av5A9r9Au6Bv0UgSp4cYmGPXUxq6X8h1TNAPO8EAxf/1cACEblmuNPbRMQVkWuBBUC+rd8rwl93KskXfQd7/JLhFGXIaG8r7t4/5n4dYAWIQByDwWCIJeWqABTU/c/uWAWZ6AvGWVWTSJyzEqt+TnDxD/IQsExEilq7V0RagGXAA3mHPCWgfh6JF30Pa+xFxRQrFHUzZHb9DgprFkw2bgCDwWDwKDsFQFXnEeL/z2z5STQC5ZGYdy0yeiG5uMS8ww/gLf6R+ClEpAdYjpcxsD9wSAGs2lNInvdtpGpiFOL1IaJIx2a0Oz98AfD6AxgMBkPZU3YKAHBl/oB74D4IXyyKhoqFTHsT9qnvQfp9/kEeAJaLSKQ1eUVEReQ64KVAsFiCbwmYgz3nQ/kFioqO27UL7Qjt42DcAAaDwUB5dgMsNP/vvws0G5E4viCNF5FaeDNH2PkvlxhV3hGRDaq6DLib/noKiiTEnvE2si/8FffAfZH1ENBMM27rOqzxS0ESwS6BU1Q1YUoDG4YTVU3hZdKcBkzxf56AV3sDIAuk8ep29ADd/tdhYB/wrIjsx2AYRspKAVBVC5g6cDCLHnwIIbqNtaQaSZ5xLVI5IezwQ8BL4rT45/CVgF8CnxwwXj2F5LxPkj70GGQ7opFNXdyDD6Kz/hFJFhQsqgHiU+3JUHL4qcQ23hw6F7gAOB2YAywkv8jY8b3HfuAJvODbR4D7AAdw4jgfGEqPslIAgEX5A9q5Hbf3EMNbTXdwFMGe9HIveE4KPDK78Hz+cW7Fdz2wBMhF/ykg1vjlWNPfiLvtZ5EJpk2PeemAhQrAdcCnIxDJUML4G4gb8KyI04vwlhOBV/tf+bLswiv89QUR6SyCLIYRSLnFALw1f0Bb1yMRlv6V1CjsU66ERG2fSIHDq2K++OOb0t9Cfp0AsUmdc2Ok5YK1ezfaub1PosAhEwdgGBKqaqnqTaq6E2/3fS3Hv/hL3s8SMj5UpgGfAtpV9aCqflNVTb8LwzFRbgpAgf/fbV2Pm26PSBywxi3HGrc492tw8X8Qb6cae0RkN95uJIf3f6TGkJgf7b/gvvBXKIxDmKZxqVpkiCWqOldVv4GX7XIN+a7DcOQoX+T9TMj4YK87Eo3AR4Adqnqvqr5XVZNHe5HBUDYuAFWtwDOp9eP24nZsQzQdjVBA8oxPB8v85tgLXFZifr7r8FwBOW1GAbEnvwpnyw+gfXMkQmUPPUwi3L0TDAw0GHJ+/RsZmon/iAtzxoU9XVl2dGbZ3uGwpzPLCz0uHRkXECyBChuqbIuqhFBlQ6UNYypszhqd5IxRCSrsvrcY7L3C7t+L/a+bVPUXwHXGRWAYjLJRAPACvwagThd074tCFgCsMecjDWf1iRM4tKrUHloRcVX1zeS5AqRqEvaYRWQjUgBoXsMg67wFEUZ+GmLBMSz6AxZhBRwXHFXSLjx0IM0jh9I815JhU1uGbe0u3a7iuoqKoKqoggZ0etF+HVTE+1nEwhLv5pw3yua8xhQXjEuxbEIFk6ttEhYkxFMg8mTKv8kb8KwCH1HVfXgWuutEpKA6lqF8KRszqO8f2xEYEu3aRfrvV6AtayORKfmiW7BnvYOQ1L9UqaapqeoBYGxgSLKbbyH99GcQJxqdpuI1zyE1M2DgNV4sIqsjEcgQC1R1DPBbYOlRTvXShRX2dWXZ1ZXl+VaHvx/o5ZGDGdY1p1EZ/ql0dm2CC8cnWTK+gtPqE0yqsphem6A2UaCbDEYz/R1Doy97aoiccrIAVBeMZLvQ7mhSbaVyHNb4lxCy+O8s1cXfZxXw0eCAjHsxkhoHESkAbvMabE8BCDIHr6eCocxQ1Vr6W16PGeS0vlW103H5y740d+7tYU1Tmi3tnjm//8zi7KO2dDhs6XC4bWs3dUmYWpVgbkOCxeMqWDYxxQVjUwPkplAZGA18CHidquYsAsYKVsaUkwJQlz+gTg/a2xyNGWTUmZAoEAkGBtOVIteTpwBY9XOxKhpxu7ZHI1F4i+eZRZbCEANU9SzgZ8A5IYf7pgIFnm9z+NGmLn6zo5umHpd2J4sTk9jR9gxsyDg815bhzt291CWFWXUJrjy1mrfPrs5ZBXLC5isCU/ECG5eo6qtFxNTEKFPKSQEo8O9p1y6EaCoAWqPOQBKVYYc+X2xZTiYi0qmqe/Cqn4FfHVDGXoA2PxXJ9dbOHWHDs4othyEa/AZQOT//lEFOEwXaMy6b27L854YOfr2jm86MGzDvx2PxD6II3a7S3asc6E3zWFMv//50Gx8+vZZ3nlrNhEqblDWoIrAYaPZTHHOuARMYW0aUkwJQWJmrK7/FffGQutMGq5ffW2xZhoFV5FUHtMctxdn8w0hKLmc7tofd6Cdcqc0Qf1S1HriD/kJVQfpW9KZelzv39HDb1m7u2dtLWv11sEjm/ZOFq8L+bpfPrmnjexs7efPMKl4+uYLF41PUJ63B3APT8eobLFHVWJUcNwwv5aQABFMAPcd7TzQZAGpVIVWToLDpz+4R4pO7jfzywKPmg2URicGlpy/OI5j6F23LQsOwo6pnAj8Hzg45LADtGWXVti5+saWLZ1scWtIj4fHz2N2V5avrO/jltm7OHWPzyTPqWTaxAntwnWYpcL/vFjBBgmVAOSkA4/MHtOdgFHIgyTqkv0LegPS/CMQZDgra8EntKUhUdacyzWGjoY0XDKWPX7J3JfBevHS4IH3L3zPNGT68uoUnDmXodkfupnd/d5Y7djs8eqiJ98+t5TML6qi0ZTBrwBLgPlV9o4hsLbKohiJTTpUARwd+VgDNtEQjSap+pAYAAuDvHgb2V7aSUFOM8ukhuBnI9uSPTlDV0CAMQ+miqg3A/XhBbgWLv+Mquzqz/PtTbVz0pwM8cCA9ohf/HCrCoV7lhmfamXP7C/x0cyeHe93cyp9fcfBsPCXgZj9+wjBCKScFoDAN0OmOQAwQqUDs0LUnGoGGh4Ldg5UaHXbe8KMKbmhoRWgQhqE0UdXT8Bb/xXmHBJC2jMt3N3byqnua+Pwz7XSVcrLtCbC7K8v7H2rlnQ8c5t69vQyi/0zBc+Pdp6pVRRXQUDTKSbsrmOy1cFdYFMRKgj1iAwBzdAV+VkDUrh3s3OFFFNzQ2b6c7v8Rjaq+CPgdA119fbvaZ5szXPN4Kw8d7KXd1MIjrcofd/WwpsnhH2ZV8e/n1OWCBPPVgYvw4gJeUmrVSQ1Hp5wsAMHJ3kuSdaOZCdSyGOTSjyRbZFf+gCSj3EiEBneV0/0/YvEX//sIWfyzqvxyaxcvu/Mgd+3pMYt/ABVhT3eWb21o54q/NrO13YHwBkSL8JSA+qILaRhWymkCLFgBVCLaALoOaOiOtCAtoIQp7L2QiW4DYZr/jTxUVVR1JfBnQix8zWmXlc+286FHWjnQq0Up11uKOCrcu6+H1/+liXv39eL47QkYqAgsxHMHTIpCRsPwUE4KQFD3925xKyoFIOsFphUyklp4DugHACDpQ9FIooKMfJdLWeE38bkPL389GOwngGxsc3jPg4f5/NPttI6g1L7h5NkWhxX3NXHDM+10ZfuMkfnBgfer6lBaIxtKgHJSAAoc/pKIxiSt2ou6ofEHIynYpqDimvY0RSGHV8zFCtWtousDbThuAot/fhMfAXj0UIa33tfEb3f1kDFr/zFxsFe5eW0bn1vTRocT6pGcjVECRgzlpAAE6117Wm0ioqC0dCuaDq2z8bZiizIc+KlYA+suZLtxew9HI5CVKIegy3LiRgZZ/J9tzvDeB5t5+rCDa9w+x0WXA/+5oZMvPttOW0ahMCZgJnCH303RUMKUkwJQsPpIKpr7V512SIfWIFhRbFmGiVPyB7RzO0RU5FCqJhFSx32nKXlaevipflfmDYsCf9vfy1v+1sQzLZkRFU0bBWlXufHpNq5+vJW93S4UPkBnAH8xgYGlTTkpAAcCP3tqbWVBccCiINketGtnLhAw+GBNGSGFN96SP6Ad28CNyB5b1Vf2P7guPBmBJIYTIJDnH6ziKKpw25Yu3vn3w2xoi6a510hERfjRxg4+8PBhdnVloTAwcAHwN7+9sqEEKScFoKDwv7czjIjWtWh4IaKRUJ0uaMkQAPfwEwySijfsSHVoBcK9YYOGeKKqpwD3EpLqd9feHj77VBs7u4zD/2SjIvxpVw+fW9PO4d6+6xtUAs4B7hohG5eyo5wUgIIJX6qji2PJNq+B8EDAzxRblpOJXzVs4IXVLHrgQS/7IQKs2lPDhncWWw7D8eGbmf+XkMDS59sc/t+aNrZ3mJ3/cJFFuHVLBzc+OyCjIqgEXAisVJNrW3KUtwJQMQ61ogm8d9s2ou191XKDD06pxwGszB/Qjs1o9y6icrnLqLlhw5uKLYfh2PF3ln+msKOfbGzN8P6HD/NEk6nuM9y4Knx1bTvXPNFGeyY0RfBqvDoBRgkoIcpJASisQpOoQSqjaQon2R7cHatAC8yW01R1XBQynSQKzP/ZF+7D7T4wyOnDj9QWxCQCbCi2HIbjYiXeDjOIbG13ePdDzfxtv1n8i4WK8OPnO/jC021kwhsILMXL0DCUCOWkABQ63O0qrOro1lpnx38NVhCoJB8iVa0BBl7QbBfatBqyHdHIhI1UTgw7tKXYshiODT/XPF+hlLaMyycfa2X1AVPGodhkEX68qZO79vZl0Obv+EvdgllWlJMCEGIBqEUqJ4ecWiQyrWS33xp2ZEWpWQF809+fC8a79pA98HAEEnlI7QyQ0ArLxmkcY3zT/6+AAQ9oxlW+u7GTO/b24hamdhqKQFNa+fxT7axvdVAtqBMwXVVfHpFohmOknBSA9vwBSdYgNTPRCC+Ds+m70HsIBj5E1cBvVLWUPp+VwJLA7575f++foGt7JAIB2A1neZUACzGp4jHFv+//hteJbgB37e3lK+va6cmajy9KHm1K89HVLTSnQz+H75ieAaVBKS0wJ4Rf9GXXwFELqZsDdkHfmqKhnTtx9t0ZdmgxIQF1ccTPz35nYEgA1OnE3fTdaITysSZcQqGV0hBzVuLd/0FkV1eW9z/UwsEes/jHgb+90MP1T/ZVNA0+ZLPxNjCh5TcN8aFsFACfVYGfPdtV/VysVHQKAE4n7q7foP1WgAEZAXF/iFQ1CfyMgcVZQF2cZ28g2xldtp2KhTVuKTl9JHDIVAGMKb4rqcDv7yh84tFW9naFdtE0RICrwm1bu4LxAEFeRInGMpUT5aYA/DB/wGo4EyqiqQiYI7v/r7j77wEtcEtPxau0FefiQCuBCwK/e4V/XrgXZ8sPkAgt7fboc6BibNihVWGDhliwkrw6EllVfra5i3v29JiWvjGjw1G++Ew7e8MrBa4wBYLiTVkpACKymYFNgZRkA/b4pSihgWJFQdwuMuu/iLY93zcUOHwBXn5t7JQAVV0MvKdgvH0TmWe/AE5h3GUxkbEXIYlQ685/FFsWw9HxF4uCNNLtHS7f3dhBe3h3OkPEPHwozc+2dNFbWIhxIsYKEGvKSgHwKdj9WZMuGyxSvGho2/NkHv8guKHmtPOBu+NUZMNf/O8Hgs1ABDdNdvttuIfXRFb4B7z0P2vMIkhUhx3uKrY8hiGxEpgWHHAVfr+rm6cPmwY/caUnq3xjQ0fOCpDPClVtLLZMhqERmwWlWKjqWcDTgSHBTdPz+znQE12xmhyJ068icda/gpXKDQXnvW8C14lIaBOBYuArITcC7yKkLrt76GEyf78CDe92WDSkZhrJxb/EGnMeFPr/Z0YilGFQ/BoSG+lP+xOAQ70uC377Avt6SqvOf9ISqiyoSghjKyzmNiSZXWszpz7BaaMSCEJL2uVw2mV/t8um1gyb2h22tWfpybr0ZJVuR8mW0BR95exqfrBkNAlP5OAz90MReV80UhmORNn5Z0TkWVXdB+TSVBQrJfb0t5B9/j+jFA2AzJYfIrWzsGa+HbErwZsIcw/Tx4AlqnqZiDQVWza/69efGKQXu9vyLOlH3zdYq+PiUjfXy/AoxPj/48mNhOT8X/VYa0ks/oLSkLQ4pT7BnPokZzYkWDgmyVmjk0yrGbp1MePC+tYMz7U6PHM4w6OHenniUIaWjIvGXBn46ZYurphRxWunFcxbK1T10yJS0JLdEC3xvqOGCVX9MnBVYEi0bQM9f74Q0eiri0nleBILv4Y9/fX4Xpp86+cG4LUisrXgxcOEX5joTrzuX/mIe+hhMk9chbY8VSyRBkUlQfKsfyMx7+q+If97C9BoMgDiha9YbgWCEZvyPzu6ufKBw8Q98L/GFv75tGreML2KqTU24yst6pODelePdO8NmI8V2NeV5fm2LL/Z2cUvtnRzOB1vZWjh6AR3vWIcYysK5q0HgOXm2YsX5RgDAPCT/AGpmYU1Lr/keDRozwHSj76P7M5f54byo2vnAY+o6pf9NLzhk0XVUtWbgCcoXPwFEG1/HufJa3Cbny78A1FgJbCmvCr3W3DCWWUmoFiykrzFv9NRbn62I/aL/xXTK1j9mvHctGgUyydUcGpdIrf46yBfR2LAuQJMrrZZPiHFTYtG8ezrJ3Dl7Goq7fju255rzfKbnaFdTk2fgBhSrgrA+oIRO0Vi6uWoxOOSSLaT9MP/THbz9yHbF7MWfPIb8awYTar6PVUdczLfX1WrVPXrwD7gGgamZnkKiSpu20Yyj74Pt/mJSIP+gkjDOVj188IOlXSr5RFMQeT/Hbt72NYez0Y/1QlYPC7JnS9v5FcvGcuZDQkqbckVnBzKQj9UPEVAoNIWJldZ/HBJA7df3MjS8SlqE/FTBLpd5U+7u2nyUgJMn4CYE787qEio6g76I469SjEtT9P74Aro2BadYPkk67aMv74AACAASURBVLFnvZvE/KuR/pz2wSaYnXg+7uuPd6erqjOAz+E9rGGph94947ST3fUbMhu+DO3x6ayrUkHFS36HNX5Z35D//fcicnlEYhkGwTf/twWGpD3j8v6HW/ivrV2xy/tf1Jjkw6fX8obpVTSk+mQ72rPmAr/FU6a34LWibgNG+1+n4sU/vIK8OIg8+t6wy1F+tb2br6/rYG1rhvDmfNHQmBJ+fXEjyydW5AQOSmcbK1x8KLsgwACrgE/5PysgUncaMmYRbvv22OxmybThbL4Fbd9A8tyv5lrbBgNsgkwHrgX+WVVXAbcCm4F8Q6rgWX9yX6OBVwKXAq8ZRJL+2a7nIM5T15Dd82dwWgc5PRoSU1+FNbavLlHwGv02AnEMR+eG/IG93S737u2N1eJvo7xxRhWfO6ee+Q3JsIUtn2a8OeaHwLMiMqTmU36szVV4Cvj0/MP+d6lOCO+YXc2ixiSferyNu/d148YkS7gprdy+s5sLx6XC3BUzgRjtsMqbeNwxEeCns+0jL5XN2f5LMk/+C5JpG+SV0aBiYSVHkTj3q9jTrhgsTXA46L9HNIt7+HHSq9+HdmxGiFdAkkoqsPsvKP9rdh4xRFUPkOf/v+GZNj67pj02ef+iyqVTKvn5i8cwtsIKmvrDOGErHAxItw1TBCB3gyu0ZVw+uLqFX23vio0SMDplse7y8UyqtmHgtbpFRD4UkViGPOLh8I4A/+EsSAmzp16OPeqsCCQ6MqIumm4m/cgHPJ/7wb+j6cPQHyB4sp/8/r+Z7cI9tJr0Yx+m956XQcfzsVv8AezJlyKjzsDU/i8NVPU9hAT/3bKxKzaLf31CeP/pNdx+8RjGVQ66+O8BvgykRGSmiFx3ovebiKj/d2biWWq/BOwOnNIXHzAqZfHLZWP4f2fVcwwZh8NKc9rl2xtDK4GuiFNBs3KnrD8Iv7zuTvImIffQatJ/fRW4kdXbOTqJUVjjLsKe8mqsSZci1dMIWumP868OTEPqOYD7wr24e35P9sCDaM/B+LhG8knUkTzvm9jT3wxSkIJ0k4hcF5FkhkFQ1Tvw/N7g33s/3dzJux6MQR0JvIX1swvq+Oi8WlL9W6X8B+ABvJTcYfeFqWoVcDeFnRLBj534zJo2vv98VyzaJTemhM1vnJSLlTDPYwwpawUAQFW/AXw0MCSqWZwnPkF2S0HvoFihKkiyFkmOwmo8D2vGW7Emvmyw+vdDxm3bhLtzFdldv0O7dsfOzx+G1bCA5EvuQCr6kiFyE84uYKaxAMQLVZ2A54LLIQAX/ekgqw9GX4sjaQkfOb2Gzy+sz0Xbh90/Rc9tV1UL+BuDFONqTbu884FmfrezOxYxFP+zfAxvmlkFphpnLIn+DokYvwTpBvrT3LynvXM76buWoumiF9w7LlQFxMKqmoQ15VXYk1+JNJyNJKpQ8UqP9p/rAi6iCrioZtG2jWT33YXuv4ds61rQLKLxM/OHoWKRetEt2DP/CQon6ptF5NMRiGU4Aqp6CxAsDytrDmd4yR0HaYtB058Lx6W442WNNPRv/QcsYJwEP//xcoT4AAFo6nV56V2HeCYG/RPeNquKXywbExY0mRCR0phgRjBlrwAA+IVurgkMCW4aZ92NOBu+BjGoDnhc2JVQMxOrdhaIn/ChimY7kUwrbroF0s2o04G48cy5Hgoy4WIqlv8fSBIGTjIPAsvM7j9+qGorUOf/KgCfWdPGzWvbyUS8LCwYk+Q3LxnDKXUJKFQoHwEuibIfRw4/hfJ+Qgp0bWxzuOIvTaxvjbaS0pz6BH97xVgmFwYDfklEro1ILIOPUQDoM6vtor8/AIBo2/OkH3ob2rouIskMR0NSo0ldcifSH7iZm2T2AgtM/fH4oarTgB2BITnc63L5X5p48EA60l3rtBqL/1reyEVjk4gUmP7X4CmU0fa5DqCq9XhKwILAsLgKv9rezYdWt9ASYfnghpRw69Ixuf4A0H89d4tIWHaDoYiUbRZAEN8UVZARIHWnYs98m7eTNsQS+/SrkbrTc7/ml/01i388+Vj+wKZ2hz2d2UgXfxv46Lw6zmsMXfx34u38Y7P4A4hIG3AJ3gamD0vg1VMrefGEpO/qi4bWXpdnmjOExCRO9TdehggxH0A/15H3ECEWiTkfRBrj0SPA0I8iyPhl2DPeDFZBO4S9eJ+nIZ4UlP7d1OpwKD2kWjnDxvnjErxlZhUpKzTob1UxIv2PB1/RDW5gFND6pHDV/DrGV0WXG6giPNeapj3cr1MXNmgoHkYB8BGRDIUPEdhVpC74PjLqzEjkMoQjyXqScz+OVPe1KMjf/ce8jUx5oqoJQtr+rm/N0JGJbqeatODdc+qYHp5I/wBwfZFFOlauw4t5GcDyiRW8b25tpFaA51qztIV/tkZJjxijAAwk/yFSAKmeRvLcLyOphmikMhSQmH0l1sSXEVb0BzOxxJnq/IEuR1nX7ETa7/7UOpu3zqrK/Rq8nx4BXhr3QFJfvlfj3f85VIBPnlHLaaOiq/q+qT1Le78CEPyQTXOgiDEKQAD/IboUr/VtDgWwGi/Amvbm2HQLLGekfj6JM/8tVw45zFRrdv/xpSCgpierbO2I1vz/qTPrqSvsrncYeLNvHYw9fjxAfiyT1ieFd885sdogJ0Jr2mVTm4NbaIWYZqoCRotZzfLw03uuAF4YcMCuJHH6x7HHnIe5Z6NDUg2klvxisMDMUjDVljsFft/2jLKlLTqdbWatzZtn9Rkm8l1Ju0JeEmeux3sOBvCWmVWMr4hu3nr4YC9uuIUnJsWLyxOjAITgP/QF8QBSewqJc7+G1M2JRjADmnVwDz7gdUEppB4TWBR3CsrYbmjN0B1hP9urz6ijwhoZPmrfilnQ0XNspc0rplaFvKI4PHwwTTb8MzYKQIQYBWBwrgceC/zuuQJGLyR10Y8hadaZSMh24Dz9Wdz9d4UdXQD82Q80M8STufkD61ui2/1PqLK4eGIKu7Bs7m4R6YhCppNAe/5AdUK4YGyKZEQz/saWzGDtw4w5NUKMAjAIItKDF6SyNzCsiGCNXkjinJtRUx8gEjTTSubxD+N2bIHCTogXAisjEcwwFE4L/CwAGyM0/y9oSNJYEVrut6AuSKngWwEKggEXjEkyqTKaKf9gr9IZXuJ5RrFlMfRjFIAjICJbgZ8XHrBITP8HknM+hFrRmdXKGe1+gexzX4NMX2p2UAl4m6rOjkAsw9GZlT/wfFs0MXaCsmhsMljvP8i/Fluek0yBAnNanc2E6mgs7go82xz6OZv86ggxCsDRyQ+qUUBJ1JCYfw3J+deghYVoDMONOjg7/4fstp9DYR+DScAdqjoxAskMR2ZK/sC2jmhK1VZaFvNHJam0C6zQL/gWwFKmIBh2XKXN7JoEVkQZjWvDFYACl5CheBgF4Cj45rTlhBTZINmAffonSJ37FRTjdi42kmkj8+zncfffG3b4VOAPfrdHQwxQ1QpggFLW6yoHuqNxAdQkyTWpgRFi/s/hz1sF5YHPHZsiGVEqc8DVE9S4To1AFIOPUQCGgP8wXQY8GRhWQMWuwp51Jclz/gO1TWBg0XHayTz2ATQ8HuBcPEuACTSKB+PyBw50u4MFhw07tUmLSVWhU+APii3LMFGQyXTaKJtERBaAzf0KQFCAySGnGoqEUQCGiN8E5GXA2oKDVpLEqe8jdc4XkMpJBYcNw4v2vEBmzTVo9/6ww0vxeqcboqeglGZLOrr0vypLGF8Z6hM/UGxZhon/zR+YXZsgYUcz7R9Oh1YDHB2BKAYfowAcAyLSAiwDHg8MezEBdhX2Ke8mufhWqD0t/A8Yhg13/1/Ibv4uOJ1QmFr0DhMUGAtG5Q+0ZlyiygRL2UJ9eABgW7FlGSa25A+cWp+ILPG+tTe02qOprx4hRgE4RgJKwOqCg1YSa9wSKpbfjoxaUHDYMIy4vWQ3fx/30IPk6jYFjk4CblfVggXIUFRq8wc6neh61dcmIWT931cqpX+Pht8lsCk4VmkLElHT5a7was8FvSEMxcMoAMeBHyF8CWGWAASpnU3ywh8i45aDVRGNkCXGyZiSNN1C5unPop2h1VvPwgsKNPEA0VFw7SMsABgW/Q+wodhyDDNd+QPVyWgegUEaEprnMUKMAnCc+EpAmCXAqxjYcBapJbeROPsGqJ5ZbPFKjpM1C2jLM2RWvyMYFBhkCaZIUJQUzDeugkakBbSnQ4fnFVmM4abgv0yZhmYGH3MnnAABJSC/+YZng65oJDHnA6SW3IZMfClqyl4XhWzTYzjPfh5Nt0JhZsC7VNXkHkdDgWk9aYFY0WwCe10lXeiBmKSqI6mwR4GPvSMbjdslYYcqeqZzZ4QYBeAE8VvPLgduYmDwkHe3i401eiEVi28jecY1qFVlugkOM6Iu7v670YP3gxZMduOAVapa4I82DDv78gcmVdmcHAfQseO40JkJXQxHRO0IvwZGY3CsI+MS/i8PPzWJ0OWmVPstjAiMAnASEBEVkevwFIGgD9GLCxCB5CgSZ/4rFZc+gD3tciTVgJaZ+6uY07ymm3HW/gduy9O5oeDFPgevaZC5/4tLgQIwrSY6q1hPVjkcYgIAxhRblmFibP7AoV6NLO6iLrxWWkHjIkPxMBPgSUREnsZzCTyUd8gPEARr1HySL/o+yQt+QGLam1CrfBoKFVvdcVueIfPI+9H2jWEiLAbuN0pA8RCRJqA1ONaQsmiIqEVdd9alqTdUAXhvsWUZJhbmD2zvcMgOEo033IzpT7kICnA4AlEMPmbyO8n4k1xYXADkYgOSdViTX03y/G9S8ZI/YI1bjI7QwJwIg7y99299FueZfwWnz9KYrwSYoMDisjt/YNYgW8PhpiurHOgJVQBWFFuWYeLi/IH1rU5kLoDJNaGfc4FVyFA8RuaqEzEi4tIfF7Az73BfuiDJBqyxi0kt+x2pRf8JtaeiVvWIihGIw3/i7L0LZ9svQPsSkYNirfBr1BuKw7bAzwowqzYaBaAj47KrM4tqQd2I6SMkXbRAkVnf4uC40WgAM8I/571hg4biYBSAYSIXFyAiM4EFwFN5p/THByRqsGe/m4pXrKbigluwZvwD1J5SMoqASgqVCu8/iqHI4nbjPPcNsvvvDSoBOaYC9xkloGgEFQABOLU+mjgAR4Xn2xy6wwvUlLRvTlUnMTAGQDodZX1zBieieeXUcEvPjmLLYejHKABFQETWcmS3gLcFSdRgTf8HUud9i9TiX5K86CfY094CqZhWy6yZgT39rSTP/zapc2+G5Kjobf6D0bWd7Nov4LZvDjv6IuCvqmpaOg4/wQ9AAWZH5AIAWNOUoSU8EPDfiizKyeaT+QPPtWbY1RVd1t28UaHZlaEPpKE4mAmvSIhIh6oux2tMswKYnneK9p2arENGn43VcBY65dXYvU3ooYfJ7vkz+sI9aLqJqJCKcVhTX4c9/c1I/TxIVCF2FaouiUwbmac/h0TUbexoZJufRNb+G9biVdBvq8gJeyFePMA1UchWRhTUp4/KBQDwRFMvB3vdXFtgof9+WAFcG5lgJ07Q/C8Am9qyg8U8DDtJSwaz9Iy0yoslRQwNtiMf3784mCKQo/CzUUXdHrT5KbIH/o574AG0YzM4nYjbi+v2gptGCnPfj00+qUDsSiRZCYk6rFHzsSZcjDVuGVI/F7BAwm+dzOp34ez4bySyJq9HJ3HGdSTmXxss05yb9PcCp/oFngzDgKrOA9YFhmR7R5Y5t+/HiUhv/OKiej55Rh1+ZeCgFDUi0h2NVMeP784Kyi29WeX6J9v56vposu7mNyR44jXjc+WXg9e42jxv0WEUgIjxi3WsxFMGGo9yet7npWi6GTp34nbthp79aM9BtPcQpFvQbCdku8HpAqcb1+kC7fH+jJXCslJgpUASUDEaqZqMVIyFqklYVZOgegZSdyqSCK2LEjZdi3btIfPQ23GbCnslxQVJjiJ53jewpl4BVhIG/i+PA8vMpDQ8qOpEBgZ+yf7uLBffeZDnWsOd8cPNnPoED71qHGMrLBh4LzyIdy/E06QVgr+5uA+vDXYO2dedZfmfD7GpLRoXwD+eUs2PFzeQKlQAKkZK86VSxLgAIkZEOoGPqer19CsCgxUiyZuIRCQ1BlJjsEef0z+c7QW3F3UziDqomwF1IPcdQbFAbMSyQWxvN5yoQRLVhOiFQ54ApWoS9hnXoY9/CO3aM9SXFRU33Ybz3H+SHHMeUjsbBpp+zwPuUdVlfjaH4eRS2JwmYTGvPsVzrdFstje1Ody6uZOrzqiDgfdCrnfEpyMR7Pi4kYGLPwB37+1lS3uGqPZ8F4xNYoeXfI5G6zMAJggwNohIh4h8FK9U7c1AaEu7PDTkC+wKSNYjFY1QOQGpnorUzETq5iD185D607HqT8Oqm+2NV09DKsf7O30J+7vH8I9Y2BNfSmL2e2PbCVFEybasIfPsDeD2hp1i6gMMHwUKQJUtzBkVbZ+Mr2/ooKvfB5GfJloSvQF8a2J+6p8A3PB0K26EWUULG1NY4VNJyVhXRiJGAYgZfvrgp0VkBmADdYTXExiMMKXgWL+Gwk5frpvz3hvExp77cexprx/inyo+oi7uzlU4z37Bc5MUNg1aoarjopFu5OL3zhiQ+520vEyAivD2vEVhX1eW7z3fGVYmdxqlowzeyMCYIlHgy+s62NQW3Ub71LoEE6ssRArM/ztLyb0yEjEKQIzxlYHOQD0BG6jm2BSCk0ET8B3gjf772yIy0+9/cB2erzSHb4WoJLnwS1iTXlFEMY+dzMZv4Wz96WD1Af6kqlXFl2rEsyrws4K3SIyriG46clT4+eZOtnWELpQrVHVqsWU6Fnz5Cgr/PHowzTc3tKODBO0Wg/PGJoNlgIOsChs0FA+jAJQQvkLQk6cQTMLLY3898DVg/0l4q9zu/iJgooiME5GPiMhv/Pfvt5V6Py9nYP8D73jFOJJn3+ClC8YU0V6cTd9Bw5sGLaJ0dn+lxI/yB+bU24ytjDYmeW2rw292dudaBAeFmQTcHVeLkKrWA78npPDP1zd0sqcrut2/JcrCMUkawhWA64stj2EgJgtgBOKnAVUASf8r4X+l8JQG8IJvgl+9QCfQdTxmOVWtxIs+Pj8wLKiLs/kHZJ7+LJKNZ+MvRbCnvp7kom8gleP6h/u5VETuiUC0EYkfqR5clUQV3npfE7/e2R2pr3p8hfCXy8ZxRkOf2z94HzwGLI9Thojf1vqveMpqELl7by9vu/8wh8IbHhWFhpTFz5aO5nXT+gor5q7nLt/NaYgQYwEYgYhIr4i0iUiTiOwXkd0isl1EnheRDf7X8yKyxR/fJSIHfHfDcfnk/EnxNeQHL4qFPePN2JNf5WUexBBBye76Lc7Gb0C2IEYN4MeqOrPIYo1Y/Hss6MJSEbh8ehUVETfFOtCrfHh1K7u7QvtGnI9XNvpo6bpFwZfjfkIW/12dDl94pi3SxR+gMSWcPSZUmTLm/xgQzxnZUJKIyEFC/LuSGk1y4RdJTH1tNIINARHF2fR9slt+3DcUODwV+B8TD3BSKVgAXjm1ktGV0U9J973Qy3sfauZA96BKwP2qGunu1S+odD8QyP/1AlnbMspHVrfy9xfS0QgX4JzGFFOrQzM8jPk/BkT/tBlGGqFBgVI1keR530JGLYhGqiEg2XacdV/E3X9v31Dg8CLgzhHSJS4OXA+0BQdGpywunRyP1NF79vbw5XUd9GRDUwPn4VkCTim+ZKCqi/EW/2BwjYDX4vijq1v40554FDB8y6wqQpI7dpsaG/HAKACGk4pv3r2cgeVe/aDARpLzr0GSo6IQbUhougln7X/gdmzPDQWnr6V4qVaGE8S/TwqsRf94SjVWDDLDHBW+81wHP93cRU9/tMKAlsHAZlXdrqori6EYqmqDqn4XL9Ym6IYQgPaM8unH2vivbV2RdfwLMrZCeN3UAt8/GPN/bDAKgOGkIyKHgZeT5+cFwZr8CuxZ/wR2fLutZg+vwd18y2DxAFeq6mnFlmmEclv+wPIJKRaOSUUhSwGdWbjm8VZueKaNQ4M30ZmO1zToPj8Q9qSjqpWq+jXgOeD99Afygr/4H+p1+cyaNn6wuYN09PoTAFedUZer7RCUaD+eldAQA4wCYBgWRGQ/YZp+og57/rXYky8jrtZ00V4yW3/sxQOo58EIHJ4A3K6qg5VrNgwREXmAgqJAwlXz67y0gBjQ4Sg3rW3nPQ81s6PDgcEzp5biWQS+dLLaSquqpaqvwjP3fxwYn3eKAKxvyfC2+w/znefag9aKSJlSZfNPs6vDDq0y5v/4YBQAw3ByPfBA4HcFVCrGkljwH0jdrIjEOjqSaSf9zGfJ7u/L/gtO/POBP5ysib7MKXADXDQ+xdyG+FTfzbjw+13d/PNDzWztVwLyK0cCTAauBtKqulNVb1LVRj8t94ioakJV61V1mv+6nYAD/AGvP0WQvvd+6GCaN/21iXv29MTC7J/jLbOqGBce0Hlz2KAhGuJzxxhGJH6ecn60MoBk9/yBzOr3gNMagWRDQ0adQWrJKqRuDhSWSf6KiFwTgVgjhsFa1171WCu3PN8RaU2AMCZW2aw8t55XT61kbKWVm0CHYq7IWcS2Au1ABq/A0ES8Cn5ThiiCADSnXe7Z18snHmlhb3e8NtSNKeFPLx/Li8b2uXJy12e/iEyOSCxDCPF6ugwjEr+C2n3A6YFhQTM4z3+HzLobkUzbIK+OFiVB4pR/8iwWFWP6hz2a8NrFbohGupGBqu7FWwjBn5Pu3tvDOx5oZn/MFjfwqha9bEolV86u5g0zqqgaGOY+XL4LAejOKnfs6eXWzZ38eW8vvdl4uEpyiCorZlfz7QsactX/ggJ+TUSujkg0QwjGBWAYdvz6AK8F9g08kMSe+XbsCS9HibYb3GAIDs72X+Fu/7nXTnkgjcAf414nvgQocAO8eEIFi8dXxCIjIB8V4Z49PXz00VZec08Tt+/oJtOvpwzmHjhWJO+Ltc0ZPvBQC+9/6DC/29kdu8UfoDZl8bppVYxKmtK/pYCxABiKhqp+Cc9HmkMA3OY1ZO6/HO05GI1gQ0BSDSQvug1r4iW5oeDs+wSeJSAeydclhu8G2I4XYAn+ffH4oQzL7zxAlxOVZEdHVEklLM5rTPDZBfUsnVBBpS1hue9wZOtAwSuyqjguPHk4w5fXtXHHrjS96sbOLRLk7DFJHrhsHLXJ0M5/MyMRyjAo8b2TDCMOP2jufuDCwLAAZPfeifPo+9DeA5HINiTqTye15JdYXnOj/Mn8Abw68fHblpUAqvpV4BOBIQG4+rFWvrq+IxqhjoM59QleP72S5RMqmFFjM7Hapi4hR2117Ch0OUpL2qWp1+Vwr8vDB9P8dmc3Tx/O4JTAXVVhwW8ubuSV4bn/N/ndQw0xwigAhqISqF9eUMXM3bGKzJNXoemWSGQbCvbEl5I8/xao7rP6m0nuJDBYM6kXurO89M4m1rUWuF9iTaUtTKu2mVGbYHRKmFBlMbnapj5pUZcUEhbs63LpySpNvS4Helxa0i6Helz2dTm80KuxNPEfiY+cXsM3L2gIC4w0ynFMMQqAoeio6iK8yT6YKCyaacN54uM4O/8b0fgFfwGoJEnOu5rEvGsgUQ0DJ7p9eK6ALdFIV9r498VjgSFxFb73fCcfeaQ51qbvo2GjpGwLW7zAK7Eg4yquCo7rxiqF73g4rc7mzkvHMbPWhjzTP3CGiHRGI5nhSJggQEPREZEngDcXjCfrScz9OFb96WhMdVPRDNntt6KHHyXX5iBweBLwK1WtiUS4Ese/LwZ0k7QELp1cwaLGCmTYAuyHnyxCd1bpcJQ2R2lNK10O9GS15Bf/hChXnVnH1OrQ5WSVWfzji1EADJEgIn8CvhsY8lbT0eeQPHslds30aAQbAtq1l/ST1+I2PxN2+Fy8pkHm2To+CjICZtcluGp+LaMr4pkpUs6IKpdOqeJ10ypJWAWBf3swkf+xxkxShii5DgiuogpgTXwZ9oJ/R6349gvQ1mfIPPI+tGMLFLrSFgN/M50Dj4vQbpJvmFHFR06viWVaYDkzutLmswtqmVQVqpytMn7/eGMUAENkiEgbcCUwMMxbLOxpV5A89T1RiDVk3NZ1ZDd+C3U6oTD323QOPA78BeOdeJXz+qiw4Lqz6lg6Lr5KYTny+XPqedHYvkrHwcX+YczuP/YYBcAQKSLyFPCdwJA3iUgSe+4nsMYuQSWet6mQxdn1a/TA31AN7cKyQlXjU9S+RBCRrYS4Aipt4YdLRjMlfLdpKCI2yjtOqeb9c2uwCu1cu4A3ikiMKzgYwCgAhngQavaV6inYZ1yHVMc3HoDeQ6Sf+iza9EhY58DpwP1GCTgurgceDfyuAKfU2dywqJ6xFca7EhWiyiumVLFyUT0J72NQBu7+V/ndQA0xxygAhsjxzb4XA6sDwwpgj38xyXlXx7ZUMADtG3Ceuhbt2pkbCa5OFwB/NUGBx4aI9AIvAXYHx22BN82o5C2zqgmvNmsYbqbV2Hzu7DomVoV+AA/iKfSGEsA8QoZY4JsL38zAfgGKlcI+5UoSp30gIsmGRvbQE2TX3wSE1i9YDKwsrkSlj4j0UOgK0JqExQ3n1nP26NQgrzQMF6LKR+fXcf7YFJYUWGF2ARebwL/SwSgAhtggIrsZOOEDKJIgueDzWJMuQ2N6y4oome2/wtn8I3DTUBgUuMLUBzgurgMeyh8clbT47SWNzKuPsWVohFGdgA/Pq+WTZ9QG/f75pn/j9y8h4jmbGsqZ64BHCkbtKpJnXIvUnlJ8iYaIuF04G76Ke+C+sKDAqcB9Rgk4NkTEBV4BPBkYVoAp1RY/e/EYFo5ORCJbOVFjw/Vn1XPzolG5oXy/vzH9lyBGATDEChHJAMvwSojmUBAYvYjU6R8HuzYi6Y6Odu4g89xXButsaIoEHQd+JblLCKkZsagxxZfPb2BGrbmkw0VCLWMl5QAAIABJREFUlPfOreWj82qpShQU+wFv8V9mTP+lh3lqDLHDVwLyXQGIlcQ65d1YM98e26BAEcXdfz/OM58LugKCmHiA48CvGfFGQkoFXzypgu9fNJpxlSYz4GTjXd9KPregjvrCFr8A38Ys/iWLUQAMceV6vC5iOfz6ABaps/8de8orIxFqKIgo7vafk1n3xcGKBK1Q1fpopCtd/CZLBUGBAlw6uZLfXNzIGaOMO+BkUWUJb5peyS+XjWF0RehS8ThwjVn8SxejABhiiT+pXEJIaiDJepILPo80nBOFaEMmu/l7uPvuhvB4gL+YeIDjIr9mBPj3xZLxFfz0xaNZMj5pSgafIPUJ4foFtdyyeDRj+xf/4EV9GniZn6lhKFGMAmCILX5E8TLCigTVzSUx75OQGhOJbENBe5vJPv8ttLsvszFoBTgXUyr4mPEVw2UMtA6Bf1+cOybJT5aMYem4CkSNEnA8VNjCtQvq+JczahmdCl381+Kl+7UVXzrDycQoAIZY4ysBrybP94tY2FNfiz1zBWrFs9CeiOIeepDM2hvQTGvYKW9X1TOLLVep4ysBy4GCwguWCHPqE/zxZWNZcUo11cYjMGRElcnVNj9cPJrrzqqjJmFBYbT/BrzFvyUSIQ0nFaMAGGKPv9Mo8P1ipUiefhX2xJdHJNnQyG79Gc76m6A/HiDHaODXqjo+GslKFxFREbkO+HJguG+xqk0KP1k6hg+cVkvCuAOOSkqE102v4o8vbeQfZ1XlbtL8C7cWL+CvqdjyGYYHowAYSoUw3y9UTSZ53rewxl5UfImGiIjibPoh2V2/7hsKHD4NuN2kBh43g8YEuKo09WZxzfp/RCxR3nZKFd++sIGzxySR/vr+QZ7ELP4jDjPpGEqCQFBgsEiQFwVeNYnEwi9D5bhohBsCkm3Hee7raOu6vqHA4cXASlU1eWzHiH9frMkfBrhrTw+/2t6DW5CJachRY8OXFo3iOxc1MKXaHmzn/wCw3Jj9Rx5GATCUDH59gDcBW/OPWaPmkZjxj6hUFL4wJmjbczjrb0Z7DuSGgivTNXiVAs1qdQyoaiOwIjAkAId7Xb60roOerNn+h1GdgNdNreLR10zgX+bXUWX35fgPtvh3Fl1Iw7BjFABDSSEie/ACwA4EhhW7Cnvux0hMey0q8b2tnd1/wHn+W2GpgQBLMZkBx8pKoDE40OEon3uqjYcO9g7+qjLVCyxRloxP8p0LRvOzFzcwvyExmMkf+hf/Mr1aI5/4zpQGwyD4SkBB0yCpmkTy3K9iNy6KQqwhIW4X2U23kN36076hvFNWqGplcaUqTVR1BiG7/7/s6+X27T24RzKmlKGdZUaNxbcvHM2qZY380+wqGlKhUf7gleG+CbP4j3jK8DEwjAT8RfJ+4LzAsGfHPPwY6fteh6Zj7LJMNZB68f9iNV6EvwULTrRm53UUfFfJL8hTAA71urz9/sPctbcHNdMbligpy+JNM6r4wsI6ptXY2APb+IaZ/C81BX7KA2MBMJQk/gR1ObAlMOwVCRp9Lvb869E4Nw3KtOGsuwnt2hV2eCkmHmBQ/OtyHwMXfwAeOpDmsaZM2S/+osrs2gTvObWWh181lp+/eDQzaxPBxT9/5x/c9ZvFv0wo76fEUPKo6iS8zICp/pC3nc604jz9/3C2/hzRdGTyHQm1qkic9kGSZ34G7Coo3I3d5Oe6GwKo6krg2rxh2dHhcPlfDvN0cyYKsWJBSoQLx6W4YkYlyyZWMH9Uggp7wKIfxoPAa0QktFqVYeRiFABDyaOqN+FF0efwlICObaQffDPasjYawYaAWtWkFn4Re/Z7wlwBO4FzReRwNNLFD1WtADbC/2fvvMPcKq6H/Y7q9r72Nq97BTfcADeKCTG9g0mophOSAIHEfOkQCAQCgfwICSEhhMQUA8E023TjDtgU97be6m3eXtXm+0PS+q50116vJV1pPe/z7GNr7r3S0b1HM2fOnDmHQk2zALjz8wae3NZy6LX/I/9EYqGbtJsFFxbGccPIRManW8iwm7F0F1tv8C/FG0uzSC03HZtEv2YrFIfBl0RnJd799FqEu/IDnGu+B87oTVsurKlYZ72MacAc/LaL5vBavG5ZlyHCRRlSyseAOzVNQkp4o6Sd76+sp/0YyPojpMRuMZFgEYxJMXP18EQuHZpAmlV4y04e7NV7uhllHBz4PT2cozgGUAaAol/gK6+7EpigaRYArn3/xb3pHqQjeifSpszpWGc8i0geBcEd96NCiHsNECuq8Bl6ZUCOr0kAFLe6ue6zej6t7uy3Wf+SLJATb2FwkonRKTaOT7dwYraN8enWwJk+9DzwbwB+JoT4JJyyKmIHZQAo+g1SymF4g8PyNc0CTyeuLQ/i3P4nhOcQe8MNRGLBPPR7WCc9iPBWONR24i1407B+ZYx00YHeUk+nW/Lgt838YXML7VGW9MduBodbHlFAohlJYaKFwiQL+QkmBidZGJNqZVCiiQybiew4EwPie+Xe11KJd8Z/nxAiOn8ACkNQBoCiXyGlPANYrmny+tSbd+NYfSWy8VtjBOsF0hSPdfJDWIYvBGGB7h37XrxLAeXGSGcsUspReD08/sJJAqC8zc13369lc0N0rZAMjDexeE4Gx6VZqGr3UNPhoc7h4UCnpKbdTbPLg0eCSUBWnIn8BDOFiRZGp1gwC7CYRNe/FiEDt+5B71IZ+fNl3KeWkBR6KANA0e/QWycG8FS8h/OL25DtlcYI1hsSh2Cb/jdMA2b7W7Qd/Qa8RsAxNYvTbPubpWkWbgl3fd7Ik9taDJJMH5OQLByZxKNTU0mxhrSL7a2Lo4SDA390uUUUUYUyABT9Dl+k+KfAdE2z1wgofxPn+luRznpDZOsNImUcthP/gUif6G86ZpME9TD4A4g3S9q5dnU9DY7ouhWDk8z879RMJmVYITJJh7tm+oD7WNENxdGjEgEp+h2+GfL38a59+pEApvxzsYz9sSFy9RbZtBXnxruhvcLfpDXUj7V6AQ+iM/jvaHJx7xeNUTf4A9w2OpHx6dZwf0w58CiQK4QYJIS4VwjhUoO/4khQBoCiXyKE2A3cEHzEhGnotYgBp0RapCPCU78JV8lroB+0uEBKWaB3oB8SmO1PSAkv7m1nX4tuQSVDOTHbxo/HJWEOvW+1DPgD3gBXm2bQrwr5JymOGdQSgKJfI6X8PaDdQuddCqj+DOcXt+Np3o2I1tJwicOxnfg3TFknoZMfoN/HA0gp4wFtGVohgZVVnVy7qj7qDIBMm+DVUzI4NTcOgl3/fwA+BzLwBjIm432oEqgFKvDO6kuABsAFuH3/OtV+fUU4UAaAol/jW0NeCczUNAsAd/HLOD+/DdxthsjWK1LGYJ/+V0TmdAgeVPptkiDf4L8S0JZ2FK0uyc1r6nmpqA13FHVfNiH45aQkfnJ8MnZTkLG2Bu82TjWIK6IKtQSg6Nf41kQvBnZqmiWAedCFWMfdo3td1NC0HefXP4X2MvAaLtpR7yT6bzzAQ3Qf/AF4t6yD14s7omrwBzg+3cwlg+P9g7+WSuBUNfgrohFlACj6PUKIauCmgGaJyYZpzN2YCy9Ciuj9KXgOfIlz998PFQ+QEWmZwomUMoeAMr+AaHdJHtncEnXpfu1mwTUjkhiV0hX4pxVwsRDi2K1OpIhqorfXUyhCiBBiJfDHoHaTFcuEBzCnHh+9JWQ9Ttx7/4Gn/G2QLujuBcgHlkkp44wRLrT4lmxeAbK17W1uyU++aOTL2ugLeTgh3cIVQ+P9OfgDizndZ4hQCkUvUAaA4lhiEd7SwX4kgEgoxDzmToQt1RipekNHDY7ND+Cp3eBv0RoBU4GV/cQI0Nv2x3tlHbxa3I4MzohnKAPjTTw5I40Bcbpd6eL+HKSpiH2UAaA4ZvC5Yufg3VKlOWDGPOgiLMNvjOqlANm4A+fm34FDN4nRVOB93ww6lgna9lfZ7uGZHS3UtkdX1D/AHWOS/Al/IDhhk5r9K6Ka6O3tFIow4DMCFmuaJL54AMuE32DOPy9qjQAhJLL6I5zf/hbpbofgXTwz8QbPxSRSyvOAQk2TkMDq6k421DijbvY/Z4CNhSMTsARH/ZcDF6ukPIpox2K0AArjkVLmASOAPCCth9Pagf1AKbA7xgObFuEdLE/WtEkQwjr5UejYj6d2fQ+XGo+76AVE0lAsI24Ec7x/VPQPNguklA8IIY46Qb6UshAYBuQCPa2PtOHdw14K7OnrlkQpZS7wWGB7cYub33zdTJMrusbSNJuJm0YnkmXv0fVfE2mZFIojJbpMakXI8dVQt+I19o7DO9CPAsYCI32vk/rw1vuBr4FdeLfY7QC2AQfwJTGJ5hmQlNKKd5/5DE2zQHrwVH2Ac8OtyIOpeKOP5JHYpj2NKetk8HostPd6I978AK36F3fTCzswDq8ejMarFyN8fwl9kKwc+IqDerEdr27UAy49A+FQtRtuW9fAMztaoipAUyC5aHAC/5iZRoo16N6XA0P7Y24GRf8jen5VipDgWwNOxTvLXQAYmTLWX5XsF9HYIfqMgN3AIF+TL47bjXvLAzi2Po6Q0RnDJaXAnD8f60n/Qli67DftQPSUEOJHB8+PGr3wF675I1AthPDoVG8EEG+WdHDlZwdoizLNMSNZ8Z0sTtPP+PeoEOJencsUiqhDGQD9AF/n/iDejr3wMKcbRVTWJu8pVbB0teFcdzWe8neMEayXmIZdi23yI2BJhu6DUS3eRDq3Ed16UYbXO5Xjey0AKtrcXP5pHaurOqNq7d8kJHePS+aRqV0rItp73m8zMyr6J9Hzy1IcMT7X6W/wdvCDDnO6Hkf7/CUH85n3lna8hsCfhRBfHeXnHzU9pAoGELKtDNf6hbirVxogWe+QCCzjfopl7E8QlkRv00H2412/P1JC1S/0ZQlIdHrg/q+b+OOWFtrd0bWKdEaenRdmZZATH+T6/xrv4N9kjGQKxZGjDIAYwzdgpeCN9r7S9/+e6NXzbWxqYv/+SsrKy2lpaUXK4E7XbrczYEAWuTk5DMjOxmrtVbnTw/Xei4GngPVGxgv41sNX0j0oEEDIxs10rrocWvYaIFnvEPE5WKc/iylnnr/pcPeyV3rR0NhIeXkFFfv309KiH04QFx/HwAHZ5OXkkJ2djdlsPtzbHla2ohYX311Ry87m6Nr2l5dg5pW5GZw8wOa/gdrvcroQ4mNDBFMo+ogyAGKAI3Txd3umHo8Ht9uNy+WipvYA+4qLKSsvp6SkjOLSYsrKKmhubQWPG4nAozP4A5iEQCCRCKw2G3k5ORQOKmBQQQGFhYMYUljIoIJ8rFYrFosFk8mE6O66PVzHX4rXIFhkhDEgpUzEG4h2gqZZID249zyLY9N9CE+0Fg0SiAFzsc34GyKhyxEUeA919cLhcFBdU0NxSSnlFRWUlJRSVFxMWXkFbe3tR6QX9rg48nNzGVSQx6CCQQwuLGRwYQEF+QVYLGYsFktPBoL/zYUE7vq8kT9taY4q17+QkmtGJPLEjDRSrUHb/kqEEEMMEUyhOAqi5xem0MU3ML2HTnY0DV3PUUpJS0sLtQfqqK6pYeeu3WzesoWt23dQV1cXVlmtFgsjRgxj0oSJHDduLAMHDCA7O4uM9PTAjv9QA/xq4BohRMSn3FLKAt/ndwsKlJ0HcH5xB+6ypQiia1aqxTL8Oszj70fYM/1N/iUajV4coLKqmp27drFl23Y2b91KY0NjeOWyWBg9eiQnTJrE2NGju/QiPS0Nk6lrG50ExIf7Ozn/w1pao+w2D04y88rcTKZn6Sb9eVgIscgAsRSKo0IZAFGKL0L9Ibyz/kOt43Z18N9u3sLqtevYvWc3lVU1VNXU0N5mzKzVYrGQkZFGTvZAhg4dwgmTJzHlhMmkp3WlGTjcLP9ZvN6A8FotAfQUFEhbKZ0bbkZWRbGX15yAddTtmI//BZi8A5XL5WLT19+wbv16ioqKqayuorKqis5OhyEiWiwWsjIyyckZyLBhQzhh4kSmnDCZlJQUdjQ6ueSTOjY3RF8M3W8np/DT45KwmYNm/6vwrv1HV7CCQtELlAEQhUgph+B1h8/QOdztmTW3tPD+hx/x1tvvUFVTS1trK05XdHWgQggS4+NJSEpk9syZXHn5peQMHKh3amAnGvFlgR6CArs8AY7lJyLby3SvjQakOQnbtKdozTibZcvf56333uVAzQFa29txRZlemMxmEuLjSU5O4vRTT2H94Hn8p9KCK8qyGZ+UZeX9M7NJtAQN/vuBsSrwTxGrRNcv7RhGSmnh4Dp/vs4pXTN9h8NBa1sbH378CS8veY2qyqoe12ijDSEEiYmJnDp3NhdfcAH5ebnExcUFuoIDqeLgFsKOcMsopczEawSM1TQLAE/p63SuvT4q8wN0uky0OCy8v2cob2wppK6xPab0wmVLoGbIdCrHzKMzORu3xYbRXVSCRfDqKRmcla+75/+PQoifGCCWQhESlAEQBfjW+VcAJ/VwigBob2/ny42bWLNuPavWruXAgYh6x0OO1WZjxtSpzJ51MpMnTiA/L89/qKdRy59Y6L5wewSklIPwGgGDNc0CVwuub36Fc/dzUWMEtHSa2ViexvqSDDaUpFHXZjNapKPCbY2jvmAiDfkTaMwZTWdS9uEvCgM2AfeMT+YXE1PwZfzV6tx6YE6Mp8RWHOMoA8BgfIP/SmCyzmEB4HS5WL1mHUvfeZvtO3fR1Niku1UvVomz28nPL+DUubO56ILzSE3ptrNR74tGZN3VZwRsBPxRdV4vTEcVjrXX46n6GCOXfp1uE2uKM3hn60B21iTR3Nm/Snu4LXG0p+ZQM/xkqkfMwW2Lj+jnT8m08u/ZGYxJseDbkKB92MmHSrWsUMQCygAwCN9asz/ILzCJT9dz2b+/kief/gtfbtxIW3tHvxr4A7FYLIwaMZJbb1rIpIkTMZkOuY3wj3hjA8I6A5NSPgn8IKBZyKatdKyYi3Afdc2dI5cJ2Hsgkb+uG8LWymQ6nOY+ZdyJFTxmKy3Zwyg+4XKaBwyPyGfGmQWPTEnh9jFJmIIHf7XtT9EvUAaAAUgpU4B30Mk+B+B2u6k9UMey5Sv476tLaGlujriMRnPyjBlcf+3VDB82FJuty6UdOM6tB64QQhSHS44ePDTe51T6Jo71NyLckXk+bo/gQJuNt7bm8ObmXFodh0260+84MHgapRPPpz0tF2kKn8djbIqZFWdmU5DQdY/Vtj9Fv0MZABFGSjkCeBWYGHCoa51/6TvvsfTtdyguKenXM/7DkZ6Wytnz53P+OWeTm5vjTyykt1Pgx0KIN8Ilh5QyB2+SoJGaZoF0497xJM4tvwNXeL3BDe1W3t0+kOU7BlDWEFlXeLTRmZRF9YhZVI+cQ2di5uEvOEKy4wQvzc3ktBy7v0lt+1P0S5QBEEGklFOAtzhY+AQ0z6Cuvp6HH32CLzZtpKO9PeLyRSMWi4XBhQXcvHAhM0/uipHU63wfIYzbBaWU44B1HCyd7H1ujjoc62/AXb4sbPEAlc12nlg5gm/2p9Dp0q0/f8zhMVtpT82heMoVNOQfH9L3/n8TkvnVxGSspiCDczXewD81+Cv6BcoAiACaVL53EFxjXXg8Hr75djMPPPwwVZXVMbN1K5LEJyRw/dXf59KLLtTWIQi8UauBU8NVjU1K+TBwT0Cz8NSux7H6UuioCfHnwabyVH7/0Sjq2m0otQjGZU9i37QF1Aw7CWk6+iWRmQNsvDo3g9xg138FcKIQInqTQCgUR4gyAMKMb/D/lOBUvgKgtbWNd5cv558vvEhjY3hTssY6drudi84/j4svPJ/cnC4nSuCwuA44IxwR2j0UDfLGA5QswfnlHeBoCMlnNXda+N/mXF75Op+2Y3Ct/0hwW+xUHDef6lFz6UzM6PP7JFsFf5yWxjXD4/Vm/48JIQKNP4UiplEGQBg5VKlZgLKycp795/OsWr2aDoNSs8YaQsDY0WP4/oLLmTtntvaQtrPeCJwihAh5iL6UMgPvMx2nFQvAXfQ8js9/fNT5Acob4/nbusFsKEnH4VYu/94ghaAlewRlE8+lPj8wvObwmARcPDiev5yYRqY9KClVBTAkXJ4lhcIoVO8SXh6ih8F/x86d/L/f/JaPPv5YDf5HgJSwdft2HnvyKT746GM8Ho//kNaYPQFYKaVMCn6Ho8NXm+AGQDsYSADzoEuwFF58VO+/rSqJXywbw+p9mWrwPwKElCRX72Loun+TVrGZw5ea6I7VJLhhZCIZNt2MlIvV4K/oj6geJkxIKRcQXFRGSCnZsXMnD/z+EXbv3oNHrev2iQMH6vjT039hzbp1PeW4nwS87yuqFFKEEOuAq4IOWJIwj/4hInUc8gida1LCxrI0HvhgDMX1CWq9v4/ENdcwfPVzpFZuR0jP4S/AazzcOjqRM/Lsegl/SgC15U/RL1FLAGHAF+3/Kd0D/oTH4+GLjZt46um/sLdonzHC9TOSkpNZePVVnHvOWcTHxfmbtR34GryR270bDY4AnSRB3noBZW/i+Px2cBzo5fvA6n2Z/HXdECoa4w5/geKwuGyJFE+5lJrhM/FYDp0aeVqWlVfmZjIkyQzBrgO151/Rb1EGQIiRUg7Du0acp2kWAG+8+Rb/+vd/qDlQa4hs/RWLxcIF553DzQuvJyEhAYI78T8IIX4a6s/tOUmQxL3nnzi/uL1X7/P6t7ks3jSIuraQOyuOadwWO+Xjz6LiuLN6NALy4k08PzuDebl2f2eo9vwrjhnUEkAI8SWMeQ+dwX/Fhx/xj+dfUIN/GHC5XLz1zru89c57OJ1O8C23aE65R0p5Sqg/17fTYCGgDTaUIDAPvQrLyJsP+x5Lt+TwwheFavAPA2ZXJ3lblpNRurHH5YB5uXFMy7TqDf4lqMFf0c9RBkCIkFLGAUsJzBYHbN+5k2efe566hnpDZDsW6Ox08Nzzz/PZmjXawEAtf/UZaCFFCPEV8H9BB0xWzGN/hilrBlKnvr2UsKEknf9sHNTvivhEExZHG8PWvUDq/i0EBlYUJJi5eUwiad7Av8CBfrEa/BX9HWUAhABfoNnHwNTAY+UVFTz6+BNU7K+IvGDHGK1t7Tz62BN8+PEn/ibtyDsSeM9XhyHU3IfXXexHAoj4HMzH/T9EXHA526K6RP62bgi1rbFdujcWsHS2MnLlX8ko+6pb+xVD45mcrut5WYX3mSoU/RplAISGh4AZAW2irq6OBx58mG3bdxoh0zFJY3MzTz79DBs3faV3eCLwjtSbkh8FvpniaXiTEPnxbg0cMBfLuHuQ4uBAU9dm4w+fjKCoLjAppCJcWDuaGfL5SyTVFgEwI8vGT8cnE28JSvhTDZyrZv+KYwFlABwlUkoL3pK+WkRnZyePP/V/fLt1qxFiHdPU1dXx3PMvcKCuDoIDXWfiNdhCim+f+EXAfk2zxGTDMuJmLEO9uwY7XSb+8PEIdtWGPEWB4jDENVeRt3UZls4W7jwuiSy7bve3WAihUnIqjgmUAXAU+Ab/T4FcTbNwOl28vOQ11qxde0xX8zOSr7/9lsUvv0prWxsEBwUu8GX0CylCiEpgcdABkxXrlD/hSJ/LcxsGs6kiVe3zNwIpySzawCX1q5g/oEsdtE/iW+DXEZdLoTAIZQD0EV9e+E+AkwKPrd+wgZdeflVl+DMQKSVL/vcmi195VS8ocBDeeIBwbLpfBKzXigKAyczqzqtZtn0ATpXhzzCE9FDx4RJeW/JqV5Pm8HhgWTiSRykU0YjqifrOQ3QvCgMgGhub+NP/PUNjc7MRMik0OB0OFr/0Cl9s3Ohv0nb204AVoY4HAH5HcDwIDQ1N/O3Ft2h1qIh/o3E5nbz435fY+JVunMgM4MMw6IVCEXUoA6APSCntdF/3F4Bwu9088vgT7K/c38OVikjT0dnJE0/9H00HDTJtxz4Lb5nmkODbYRAUD+J2u3noD49RXR3acsGKvtPR2cnf/v5PmltaIDhOJKR6oVBEK8oA6BsPAgXaBo/Hw1vvvMe6devVun+UUV6xn/++/AoOh+6STOCAfTQ8CORrXgu3282rr7/Bug0bQvgxilCwc/du3lu+AqfTBcFGQCj1QqGISpQBcIT40r8Gzv7ZtXs3L736Gh2dR1cKVhF6XC4X7y5bzrdbtviNM21nX+hL33xU6OgFAF9u3MTLS5b0VLBIYSCdnZ28suQ1ior39aQXgwwSTaGICMoAOHIeBLpllHM6nby34n3Ky0sNEklxOOrq6nnp5SW0t7frHQ6Fu/dBIF3zWrS2tvHOsuXU1vSuKJAi8lRWVfPPf/27JwMt5NtFFYpoQkUkHQFSyjR0Znll5eW8/e6ymCrtK4TAbDaTEB+HxWrDbreRl5NLZlYmqYlJpKSlYDZbaGlpobmlhbq6AxSXltLZ7sDhdtLZ3kGnwxEzyx1SStZu2MBna9Zy5rzTAw9fJqV8XAixXu/aXry3rl7s3ruXVWvX4YmRewRevbBYrcTbbVhsNhLi4sjNGUh6RiapKcmkpKRgNplpaW2hqamZ2gMHqKzcT2tLOw6Xk86OdjodzpjSi89Wr2HVmrWcOncOeL0AfuGvlFL+Ugix1zgJFYrwoQyAXuKLCl4KZGmaRUdHB489+eeeZpZRR2JCAoMLCxk6dDCjRo5g1MhR5OXkkJaWisVyeHVobWujpqaG7Tt2smPXTsrLK9i1ew+1tQeifqCTUvLnZ/7K+HHjyMvL1Xb0AI9JKY+4bHBPetHe0cEzf32WjpjRi3iGDB3CsKFDGTNyJCNGjCA3ZyBpqamYzebDXt/S0sL+yip27trNrt27KS0vZ+eOXdQ3NkS9MSCl5M9P/5VxY8YwcOCAwMP/8ulFdH8JhaIPqK0uvURK+RCgLSkrAP731ts8+vifor6TS0xK4ryz5jNj+jTycnPIyszEbrcHnibpPgOCgzoiCdAXj8dDU1MzlVVVfP3tt7y7fAWAAD03AAAgAElEQVS7d+8J23cIFeeecxY/u/suCEHZ4J704vU3l/LYE08elZyRID0tlfPPPYcpkyeTm5tLZkY6NltQfQLts/ffMxHw/y48Hg8NjY1UVlbx1dffsPz9D9i9N7on0UIIrrpyATffcL2/SasbjwghfmaAWApFWFEGQC+RUu4DCjVNorm5mdt+dCd7i/YZI1QvsFgszDvtFK6/5mqys7KwWq0IoZsF7Ujppjsul4tOh4MPP/qYfzz/76gue5wzYCCPPfIQQwZ3PU7/fSgDBvd2tueb/RcRpBctXHvDTVRWV4dM5lBjsVg44/RTWXjtNWRlZmKxWLR6AX3XjSC96Ojs5L1lK/jniy/S2BC9WXZHjx7F7379S3JzukJ8/PegFBiivACK/oZaAugFvo6+WycvpeSDjz9hf1V0dvJWm42xY0Zz6w0LOf64cZhM3eI9Q9GRdfMSWCwWLBYL551zNtOmTuG55//F+vVfRGUJ5AN1taxdv57CQQWB96UAb+BXb2d7D6KjF0vfeYcDDQ0hkja0xNltTJo0iZsWXseoESNCNej39B7CYrGQZLFw6cUXMmP6VJ79x/N8uekrGhujzxDYt6+Yb7dsZeCAgZhM3e7LILzPepExkikU4UF5AHqBlPL3wL2aJtHY1MRv7n+Q9V98YZRYPTJ65EjOP+8c5s6eRVpqqvbQ4Tr4CuAjoB6oA5xAmu9vFN5Uqek9Xu1FALjdbr75djNL336Hjz5dGXXb4CaMP47f/PznDBjQVaq3a7YnhBjcm/fQ8wpVVVfz/37166isADl2zCguufBCZp18EklJXcWIejPol+Mtd10HHADceHUiHRgKTAFSe7z6IMLtdvPlxk289r83Wb/hc5xRphczpk7lV7+4j9SUFOh+b0qEEEMMEUqhCBPKA9A7gvb9l5aVsTnKKv0JITjj9FO55vvfZ3DhoN64+qvxFq95Eu/Ad9je2Jft7j6890Rvn7S3DK7ZLCZPmsiwYUPJzcvj5SWvRVVA3NZtO9i2fQdZWVlBsz0ppTicu7cnr9DX33xLUXF0bQe1WCycc9Z8rrj0EgYVdOUpOtT3q8KrF08AFb3UiwHAXfSsFwDSbDaLaVOnMHzYMF5c/BKvv7k0qozDL7/6iu07djJ96hSE9wfkv0+FvdELhSKWUHkADoOv6E+3Ds3j8fDpylX+SnNRgUkITjtlDnfecYd28Jfod/QlwMNArhDiTiFEUW86eQAhRJMQ4me+WbINeAyv5yAQCcjUlBQWXnMVP/nRHcTZg4LLDMPlcvHO8uW4XE69w/N78RZBhYQ6HQ42fPFFVBk6VouZSy48n9tuvrE3g79fL/KEEHcJIUqOQC+qe6sXQggyMzO4/Zab+MmdP8Lai90nkcLlcvG/pW/1FNQ7M9LyKBThRBkAhycoGUhrayvL3v/ACFl0SUpO4sILzuUX9y0iJSVZO/hrKQP+AFiEEEOEEIuOdjYjhHAJIe4RQhTgdQWv1TlNms1m5p/5HR57+PcMGTw4cN3ZMNau30BRcbHeoSt7cfmvAhvqDtSx/osvj1quUJGSnMSVV1zOLTfeQGJCAugbhP5B3xwmvRhDsF5I8Homzj1rPg/d/xtyc3OiRi8+W72G4pISvUM3RloWhSKcKAPgEPjcvEEJXpateJ+6ujoDJAomOzOLH912K3fceqt/JqXXya8CJgshfnqk+9x7ixCiGJgLPIp3zViLBJg4YTy/WPRTRo0YGRWdvcft5l///o//pVagBb0oFRy0LPTBxx9TdyA69CI3J4d77rqTG667FqvVCsE60Qg8A0wMxaDfE0KInXj1YlXAoS49nTF9Gj/7yd0U5BcEXm4IUkr++7JuueAFqlSwoj+hDIBD8xDdi/4Ij8fDK6/9zyh5umG327nisks4Y97pPXXy4O145wohwp6P1jfzuxeYiM6sTwjB6FEj+cFtN5OefrhYwsiwbsPnetv1BIdIDyylPJOAZSEpJW8sfTv0AvaBpIQEbrjuGubOnhW4y8HP18A0IcRtQoiwh+P7lhHm4vU0BE2tTSYTJ0yayF0/up0kr6fCcD7//EtqaoO2slpQ6YEV/QhlAByaoFneFxs3RcUed5MQnDZ3DhdfeL525q/F79qdG+nAJSFEHQe9AYHHmDxxAovuuZu44EREEcfpcLBm7Tr/y8DZ3nV6f8BVge+z4YsvqKkxvtyvEIKzz5rPvNNO9WfwC/QIrcerE7sjLJcUQiwCRuCND/AjwWsETJsyhV//8v/pJaiKOM0tzXzz7Wa9Q6pKoKLfoAyAHvC5/7sH/0nJ8vffx+XULSsbUU6cPp27fnRHTzP/9cDIcLp2D4dv1vdTurt+JT5PwMknzuCO22813AjwSMmqVav1SgUPBJ7r4U8bIyAA3n53WfiF7QWzZ57Mjddf21Na5zXAHCFEU4TF6kKjF2s0zV16cdKMGdy08DrDA0YdDgcbv/rav01RaxjmqmUARX9BGQA9E+QCrq2tZfuOXRid9Xf8ccfx4x/eToK+u3Q93k5eN7w9kviMj7nA6oBDEuCsM7/D2fO/i9HhABWV+6nYX9nn66uqq9m8dYvh6aCnTJ7MnT/8AfHx8f4mrUBrgVOiRC88wBy6GwHgk/fcs+Zz8oknYTJQLzxSsrdob0+xPvdHWh6FIhwoA6Bnglx9e4v20dTcbIQsXcTFx3PlFZfppSuFKBr8/fiMgDkEB4Fhs9k4a/6ZFOTnB18YQeoamqjYv9//8oiHnS1bt9HWYuyW0MSEeBZe50337EOrF+vwuv2jZsO9xggI0ouEhAQuOO9c0jMyIi+YhrLyCg4cNAC6LQ8ZII5CEXKUAaBDT0ledu/ZQ3OTcSlMhRDMmDqVyRMn6AV3lQJnRNPg70fjCXhC0yzBm7VwzuxZWC2HrzgXLlpbWigpLcXj6dogIXr7J6Vk89ZtdAQvIUQMk4Dvfuc7jBw+XG8LaAlevYiawd+PzwiYS/fAQCmE4ITJE5kzc6ahu0Xq6uqpKK/Q8+wM8vURCkVMEz0ZOKIL3SQv+4qLcbrcRsgDQGJ8PJdefCHJycn+Jm3PtFgI0WKAWL1CCCGllPcBF3HQuJJCCLHg0kvZtOlrtm7fbph8n61ajc1qO+IANJfLyaavNhmazS4zI4tzzvpuT0tCi4UQrZGWqbf49GIx3SsqSiGEWHjtNXyzeQt7DKwkuPHrb5g9a6aeXtiBDgNEUihChjIA9EkObGhra6OsTC+xWeSYNWsmE44/zv9SO/ivJgYKlQghOnQ6e9LT07jlpoX86O57DVtH//rbzWzfsRP0t831jMdDp4Gzf4BZs05i+LBh/pfaG7gKb9rmaOc+vFn2Zmkb09PTuP2WG7n73kUhqVLUF7Zt34bT6VQGgKJfopYA9EkKbOjo6KC8cr/euRFj4TVXa7d2+SkHzo2hHOX3EbwzgBMmTeKESRONkQjvPv6Ozk462tuP7K+z0/Dgv+8vuKInvTgrFvRCs0QUpBeTJkxg/ITxhsgFsHv3Htr0UzsP02tUKGIJZQDoMy6wobm52dAsb+eePZ+cnIF6hxYLIaKz9qwOvs7+YrwxC9p2rrjsUkxm42IBYpELzj2HnIEDIXgraFQvCQWi0Ytu2Gw2zv7umYbFAngk7N6juwQxI9KyKBShRhkA+gRNObbv2GWEHABYbTbO6rkTjAUXbzeEEDV4q835kQAjRwxnSGFPheQUgVgsFs4/9xy9Q2uJXb0ICggcM2okOTkDjBKLLdu2+f+r/QFONkAUhSKkKANAn5GBDXuKioyQA4DjxoyhID9fN8I7GqO7e8mvAxtSkpM5btxYA0SJTSZNHE9Bfp7eoR/HsF4sDmzIzclh2JAhBojiZdeuLuNf+9s70wBRFIqQogwAfYIMgLJS42q8jz9+nL+aWyBBnWWsIIToALRJ+KXdbmfEsOFRkQo2FpgxdRo2m27GvE2RliWE3AfUa17LxMREhg8bbthW0eKSUn+ch9YDUKi2AipiHWUA6DNc838BUFIeWOAuMlgsFoYPG+YfFLUzkGpi0M0bQJABM3ToYFKSgjZhKAKIs9sYM3qUXsrfihie/ftjAYL0YuyY0djjjSkUVF5RgdOpm14jMdKyKBShRBkAAUgp7UCOts3pdFJTY0wBoIyMNPLydN28i2Mhwvsw/DWwYeiQIaSkphghS0yRn59HZmZXprxu+SAMECfUvBDYcNy4sSTEH65Cc3iQ0pvuWQfdH6ZCESsoAyCYoGijuvp63G5jEgClJKWQpZ8S9Y+RliUM7AhsSE9LIyMj3dAMcLFAdvYAbUIoLX+ItCxh4PPAhoz0dLIysvTOjQg97ADS3ZajUMQKygAIJuhHXVdXb9he74T4eFL1Z8TG7UkMET4PRlDU9yCDawPEAumpqSTou8SNLVYRAnrSiyFDCg0zDBv0U4AbZ5EoFCFAGQDBBBsA9fV654UdIQTpGRnExcVBdzdvbTSndz1CglzWQwYPxmJWqtkTJgGZmZnExQUFS9YIIXSz1sQgQXoxfNhQhEE5AesbdA2A7EjLoVCEEtXLBhMUVu3SDwCKCGlpqXrNr0VajjAS5O7Nzs4Ck0oI1BMms4WkpK74s/62/u8nSC9yBg40LCVwfb1uri3jkhMoFCFAGQDBdAY29LDVKiKYD2bG0/o+jatIFHqCljKSkpIwqRiAHhFIzPoGkjFbVcJDkF6kpqTQh2rNIaGxscsDoBVALQEoYhplAAQTVNjdyH3pZv3iNDG7zUuHA4ENKSnJhrl6YwEJmPSXSPqTYRi07aaHWJiIUN/Q5QHQKqYKAlTENMoACCZoDdVIA0BTo15Lf6riGOxxsVoxaqYXCwjA49bVi/60bhJUac9IT1x7e9C8AFQeAEWMowyAYIIGJKvVaoQcALS3d/WD2pmHMRlRwkNQJ9re0UFwbRuFH7eETkeQmgJkRlqWMKJbktsozBbdPqA/eeIUxyDKAAgm2ACwGWcAdHTqlhyfF2k5wkhQ6eX29nak8gD0iPS46XQ4/C+1N2qBAeKEi6gyAGz6kwBdK0yhiBWUARBMUAnVhLh4Q/YfSylpbmnxLwNoBSiQUvaXZxdUd6GxsQmPQXkXYgEpobW1VS83xaB+lJ/++MAG73ZcY/QiPj7e/1/t/Y35nAuKY5v+MoiEkprAhvT0dCPkAKC1pZXmFt2y7mmRliVMBHX0RfuKkfqxDwofDQ2NtOrPiPtLIYXjAht27ylCGOQZ0mzH7ZaPwwBRFIqQoQyAAHxV6rqNuDabFXucMXnI29pbaWxs0jt0T6RlCRNat7UAKC4txe1Wy6uHor6xsSeX+KJIyxImztP8XwAU7dtnWGRIWqpuPg5lAChiGmUA6BPsBdBPyBN2mltatXuQtcT8eq+UcgABW6kcDgelpSWoFYBDU193gNZW3WSQ/UEvBgPd8kG73W6KS0oMS8ndgxewKtJyKBShRBkA+lQENuQMzNE7L+w0NTZRvr+iv9Yj/0lgQ3FJKY2NukseCg37K6uprT3QX/XijsCGbdt30NSk6wmLCHm5ur//oH5CoYgllAGgT7Hm/xIgPy/XEEGcLhe7d++ls9Ohd9iYdYnQETRb3VtURGOzcR19rNDZ2cnWHTtwuXSXSmI2T4TPeAnSi63bttHeblyZg3z9ktxFkZZDoQglygDQZ29gQw8zgIiwZdtW2vQTkfw6wqKEDCmlhe5uXuF2u9lTVESbvmtbEcDGLzfh1K9TERRAF0M8CGitbeF0uti6dQedDmNqcsTZ7aSl6cbcFus1KhSxgjIA9Amy7IcNHWqEHABs3baDysqu5cb+su/7hMCG5uZmtm7ZZtg6b6zx5VdfUVVdrXcoaGklhgjS6arqKopKiw3TizGjR+vVpij1lS1WKGIWZQDosy6woaAgnziDUgK7XC7eWbZcLy1wgZRymhEyHQ1SyjjgqcD2/ZWVbNu1ywCJYhMpJW8sfdv/UjtCXSmlHGuASEeFTy8KNU1CSsm+4hLKSkuNEovxx4/Ta14TaTkUilCjDAB9dJMBZWcbV/3z/Q8+YH9lpd6hZ6WUxlVJ6RsPAlrDRQC89c57dBi4zhuLLF++oicvwAtSyni9A1HMg4ENbrebDz76mA79GJiIMP74rlQV2hm/MgAUMY8yAPQJWoSOT4gnL8e44l+tbe3896VX/C+1s70JwNuxEvktpRyOzt7/qupq3l223BihYpiWtjZefe0NvUNTgIciLE6fkVKOB67TNHn1oqqajz/91BihAKvFwujRo/QOrY60LApFqFEGgD5BKT7j4+MpKMjXOzdifPDxJ+zes8f/Ujvgz0Jn9hRt+AL/XkBn7/9TTz+DUz+iXXEYPv5kJSVeF7kgIEZEShn1FeuklHbgWaBbsg2Hw8Gfnv4LLpdxVY7Hjh5NvH4SsN2RlkWhCDXKANBBCOEE9muapNViYfDgQuLsxpUkbW1t4aVXl9DSQwIY3xpqNPMgcFJg43vLV7B2XVDYhaKXVB+o5Z33ltPRGVSbJhv4KEb0YrrmtQB4Y+lbrN/wuTES+Zg4aYIqBKTotygDoGcWBzYMHzqUlBTjltulhNVr1rJtxw7dBDDAh75ZdtQhpZxOcIIXUVZezlvvvmvYFq/+gMft5t0VKyguLvE3afViGvBBtBaPklJOBW7VNAmAPXv28sabb/eU5yAiCCEYP24cFovuT8q4oASFIkREZacQJTwT2DBs2FBS9HOCR4ym5hZeemUJTc26hchOwjvji6p4ACnlKGApoN1GIdxuNx99spJdu/cauvVPCIHJbD6qPyOqRWqpO1DH8y/+W5ssRyvQycAn0aQXUkohpXwIWEZAQiun08mb77xLWXmZMcL5yM/LY+DAAf5nq1XQErUFUNEfiMrZYjQghNgtpWxGU10tJTmZ48aOZc8eYwesdes38PwLL3LLjQux2+2C7p3TLGCllPJUIYThi+q+7WjvANotFALgq6+/4aWXXzF0lgeQnZXF/DO/g83W9+Wd9Z9v4NvNWw3Vi5WfreEfef/mxuuv9X8XrW7MAj6VUp5mtF74DJFPfTJpEQDrNnzO+x98YHg+iMGDC8nKytI7FOQdVChiEWUAHJrFwE2+/0tAnHnGPJateJ/O4PXWiPL6m0tJTknmmu9didlsDjQCZuLt7E/3VTc0BCnlWcDzQFAvunXbdn7/6OM06nsyIoYQgpNPOpEbrrsGk6nvDrHJEydw+4/vDKFkfeOV114nMzOTyy6+UO/7aI0AIxX4QXoY/Ldt38ETT/4fTc3G1oOwWiwcP24cKcm61ZXvi7Q8CkU4UEsAh+a5wIbjx40lN8e4tMB+XC4XLy95nQ8//lQbD6B18Z6E1xMQ8ShwKaVJSvkw8DbBg78oKS3loT88SsX+aKilIpk7e5Z2sJR9+OP448YxuHBQZEXXweVy8Z+XX+aLjRv14kTAqxef+iLvI4qU0iKl/APw04BDXeV+f/nb31FZbXyRPXt8PJMnTtAzolQGQEW/QRkAh0AI8TlQrmmSZrOZC887xyiRutHS3Mxzz/+Lb7ds0csSCDAV2CWlfCwSHb5vXff3eFMp36NziqiuruGPT/6Zon3RkUY9OyuLaVO6shL3tWOXZrOZ737nOyGS6uioO1DHU08/w569RT0ZAdOBvVLKR6WUuiHuoUSjF3uAuwMOCyklJaWl/O7hR9hfuV/nHSLPwOwBjB0z2v9SqxfK/a/oNygD4PAE/eDPmHc66WnGBgP6KSsv5/4HH2H5+x/gdrshuLPPAe4EdkgpHwpXIJiUcgCwErgXCJwKC0DsKy7hsT/9mS+//NLw9V0/l196iV6QV5847ZS5pBocJOpnb9E+fv7r+/nok0+1eqF99rnAXXgNxHDqRQGH1gt27d7DI4//iR07dkWNXlx0wTl60f8VwCIDxFEowkLURAVHK75tddotP8IjJY8+8SfePJiH3XASExK47JKLuerKK7AfrFmg15uuAs4CWkPhyvRtL/sd3ux+hQGHu/Rrzbr1PPPsc+wtKoqaTj41LZUXn/s7GRnp0P1ePYxONkgdfqv5v2hvb+f+hx7h088+C6WYR0V6WirXXX0V551zNtaD+9kjoRcW4Crgl8DggMNderFq9Vqe/tvfKCktixq9SE9LZfELz5PsXf/XCvWYEELPs6VQxCQqCPAwCCFcUspSNLMXkxCcMmsW7y5bgdMRHduBW9va+O/LL+Nyubjm+1cSHx8PBzvawF0CTQBSyhK8Ho4HgLbedPy+pDIpeF25C4ACndO6OniPx8Pb777Hs889T11DfR++Wfj47rx5JCcn6R36vRCi8VDX+mbMWgOAuLg4pk+bwuq1aw3f2eCnvqGRv/z9H3R0dnLZxRf5jYDAoFEIjV6k4/U2LaB7qWc/XXrhcrl4Zcnr/Pu//zU84C+Qs+fPJzFRN3RGzf4V/QrlAegFvvXLezVNoq6ujl/e/wCbvvrGKLF6ZPbJJ3PTDdczqCD/cLO+QErxdvxf4HV3OvCm7S0ARuPt2A9XEMHrT5eSmtpa3lvxPi/8+0VDi7nokZGRwZ8efYRhQ4dA93uzXwjRq5zPUsp9BFSvKy0r4+e/uZ/du/f0cJVxzJk1i1tvWkhubi7Wg+7t3uiF3yD4HK9euPAuIRQAo/DqRW8qZQmPlFRVVfPaG2+w5H9Lo8aA9pOdmcXTTz5OXl6uv8l/f0qFEIGeDIUiplEegN6xiO4GAOnp6cydPZttO3ZFXQW7z9as4ZstW5h/5jwuOPdcCvLzEQcz1Ryqwx9EwPc8QgRAXX09Kz74kOXvf8jOKCzvaxKCU+fMJle/uNORBHktJiCiPT8vj7mzZ7FvX3HUeAH8rFy1is3btnLeWfM59+yzGDhgQG/1opDgyP3e0jXJqKquYcUHH/L+hx9F1VKQHyEE5593NllZmf4mFfyn6NcoD0Av0Zvt1Tc0cPuP76S42Lha5YfCarGQl5fLd884g4svuoDEhITAU462B+6mP1JKVq5azeKXX2XX7t16uemjgtTkZH7zy58zbeoUf5P/PhwA8ny1IA6LbxlgHweXh7oMoIW33EZ1dU3ohA4hVpuN/Nw85p85j4vOP4+E0OsFBOjG+x9+xMtLlrC3qNjwHBo9kZs7kPt/+Uu96P8qvHoRXRaLQnGUqF0AvSdoBpCelsb555xreBrYnnC6XBSXlPLs8//i6utu5N1ly2lqbsblcgXmDtD+HYqgcz0eD+3t7azf8Dk/+PFd/Oq397N569aoHfwBBg8pZNLECf6X3WZ5vR38AXwDglYvJEBGejqXXXRR9OqFw8G+4n389bl/cv3Nt/Lhx5/S0tp6KL3oDd2ucbvdtLW1s2rNGm75wY/43e8fYfuOXVE7+AshGDdmDCOGD/M3BeqFGvwV/Y7o7KGikB7Sl4qOjg5uvuNHUbnmq0dmZgbTpkxhyuRJDBkymMyMDFKSk7Hb7b3KhOdwOGhpbaW29gDVNTVs3rKFT1auprQsOr0ggVhtNh6+/zfMmD4NAtb+gVFCiN5E/3fh04uVeLMv+hEOh4PrbrqNfcX7jlbkiJCdnc2MqVOZMmUyhQUFZGZmkJyUhN1u75Uh09npoLm5mdq6A1RX1/DNt5v55LOVVFZWR52rX4/EhHgefvABJk+cCMF6MdzIjJoKRbhQBsARIKXMBoo5WLxEAHy7ZQt33vsz2tuiKxbgUJgEpGVkkJszkLTUNFKSksjKziIzPYPs7CwyMzOxmM3UNzRQe6CW6upaampqaG5poam5if0VVVTVxEbnruXSiy/ih7fd4jd2tML/UQjxk768py8HQingj7gUAGvXrefnv30g6mJEDoXJbCYzLZ3cnIGkpKaSmpxMVnYWGRnpZGVlMiArG2ES1NXVU1tbS3VNLdU1NbS0ttLQUE9lVRW1NbV4Ykst+N6Cy7n1xhv0ckL0WS8UimhHGQBHiJTyCeCHmibhcDh47E9P8fa77xkl1lEjhMBiNmE2WzBbrdgsZgQmXG4nTrcHp8OB2+2OuQFfy6CCPJ56/I9kHyzw4v8yZXhneX2uSSyl/CPwY02TaGlp4f6HHmbVmrV9fVvD0eqFxWbDajZ16YXD5cbtdOBye2JcL/L529N/1ub974r8B0YcjV4oFNGMigE4chbhDQrqwmazcea808nIzDBIpKNHSonT5aajs5PWlhbqGxqpa6inqbmF9rY27fpwTGKxWLjmqqvIzOh6Rn1e+++B+wBt7gCZlJTEGaefRqp+QZmYQKsXLc3N3fSio70dpyu2jUKrzcYPbr2F5KSufBCh1guFImpRBsARIoRoRyfwa/zxx3HGaaditZiNEUzRI0IITpw+nRnTpurFOZQRggQvvjXioEDR2TNPZvasmVEbEHgsYxJw5rzTmTRhvJ7rvwSV+EfRz1EGQN+4D6jUNlitVr53xeWMGDHcIJEUPZEQH88Vl15MelqavylwlqdbSakPLAKqNa+l3W7nxoXXMWzo0BB9hCJUZGVlc9H555Lknf0HujFU5L+i36MMgD6gM9uTgMzMyOBnP7kbu91mkGQKPa647BImRmCW50sfHOgFkFmZmfz8p/foFZdRGMjFF57PyBEj9A6twmvkKxT9GmUA9J37gA2BjSOGD+eOW2/FalNGgNGYhODE6VO55vvf62mLYyhn/34W4U2l3I0RI4Zz0w3XqyWiKMCvF1defllPS0Lnqtm/4lhAGQB9RAjRCVwAaHPdSoDvfmceZ55+mprxGcyUEyZxz113Yjabweel0RwOyyzP5x06H28EeRcmk4mzzzyTk048ScUDGMxJJ53Ifffeox38A5eEDlkISqHoLygD4CgQQlQCl+GrouYnPj6eq763gGFDVO0QoxgwIJurv/99BmRn6x1eA5wSrlmeEGI/OktEaWmp3LTwWnJzcvUvVISd4cOGsPDaq8nQ3w2yBhX4pziGUAbAUSKE+Bp4QdMkwVsU5o7bbiXOW5ZXEUFMZjPnn6dPlqAAACAASURBVHMOkydO0HPxluId/EPt+g9kEbA6sHHI4MHcc9cPlXfIAOLsNi696GJGDh/eUzzInAjohUIRNSgDIDQswtuB+JFCCE6YPIkHfv0L0tNSjZLrmMNqs3HBOWdz9fcWaF3tgS7esJfp83kXLkJHL6ZPncqvf35fTOcHiDVMZiicKhg5LRmh3+uVRVgkhcJwlAEQAnz544OivwFOmj6du370QzLS0iMv2DFGnN3O1Vcu4Ae33tzT+u5qIujiFULU0INezJk1kxsWXkdKclLwhYqQYrJKhszuYODMaj4q+jv17fv9h7TBGCcDn/hqOygUxwTKAAgd9+ENLNMiAWbPmsnll15MnN0eeamOEUxmMxdfeAGXX3Ixdu99Dgz6W43XxRvp6G5dvTCbzZz13TM575xz1HJAGBFmSeHJneRNdWAyQ3njNj4ueg6Xx9F1iub0WcCDkZdSoTAGZQCECN/AMhd4OOCQtFosfG/B5Zx/7llqe2AYMAmYMnkS31twOYmJCRCc1GUNMNeIrV0avXg08Fic3c7NN1zPOWfNV9sDw4AwwYCxLvKnODBbvY9e4uHL8ndYU/wSHqm73L9AShm7Ob0ViiNAubvCgJTyUeAuTZMA8Hg8LH7lVV56eQl1DfXGCNfPiLPbOWXuHH54+62kpqRA8OD/Bd6Zv6HlXKWUFrzlpE/SNAvfMZ791ZO8/vF7NFvCHp5wTGC2SgYe72ToKR1Y4vTtvismPMiEnHn4H4Pm0Dq8OqMehqJfozwA4WERsF7zWoJ3L/iCyy7lhz+4lQEDsvSvVPSalOQkbrz+Ou7+0R09Df5fA/OMHvwBfIPJucBWTbNX3sZOzv8mncsrhpDisupdrjgCrAmSYad1Muz0ngd/gA92/4WKph3+l9rJ0InAQ2EUUaGICpQBEAZ8FcTm0H0bWJcRcNopc7nzjjtUFPhRYLfbufaqq7jogvNISEjQO2UrcLoQoknvYKSRUpqApcA4TbMAaPv3Jjwri5lXM5AbSoYT51bLAX3FYpcMP72dnImdXW7/nqhtL2dVyX9pc3apiNYIuFtKeUqYxFQoogJlAIQJnxEwF+/6sx+JLwBszqyZPPzQA+Tn56nMcEeAEILUtFRuu/lGLrvkImwHYyq0vf1WvC7cushL2CMP4Y0074ZzfSnNj68GpweLNHFyXTa/2HU8Ax3xmNQKXe8RYE2UDDu9nYHHOzH1xoaSHr6uWMamirdxS11v/zNSygEhllShiBpUDxNmfDO/lQR3/gKgYn8lzz3/Lz759FM6Oh1B1ysOYrVYmDF9OlddeQXHH9c1kQ6c5n2F1+0fNYO/b2tZMVDga/LGhNS103TPMtpe34xwdQ9IK49r47/5+9iYWo/TpHLTHAqTBTJHOCk40UFK7pEv21tN8Vx03CIm5s73N2l16nO8AaSGLyMpFKFGGQARoIcAMPDd/8amJpateJ9//PNftLS1RVy+WMBisXDZJRdxxSWXkJGRrpfJDbyd9elCiJbIS9gzUsqHgJ9qmoR0e+hYsoWme97DU9+ue12D1cHHmVUsyS2h06yMAD3MVsmgkxzkTe7EmtD3TR4ptmwum3A/wzKm+JsC60YYsotEoQgnygCIED4j4EHgTiDQQSlcLhe7du/hvl/9murqmsgLGMXY7XZ+9pO7OXXubKzWriC5wM54FfCdaJupSSlz8EaVF2qahWx1cOB7L+H4qIhDDSsuIdmd2MQfh+2gztYZZmljC5NFMmp+OwPGOhEhCJsYljGFKyY8SJJNt07Aw0IIVSdA0a9QBkCEkVKeDLzEQXcwaJ5DTW0tTz39F9av//yY9wbE2W2cMGkyN9+4kOHDhvaU2he8uRfui7YZms/1/yneBDN+BFLS+ud1NN23otfvVWnv4PlBe9iS3Ei72R1qUWMKi12SNtjN0FPaScgMnWdEYGLeiJuYPeQqLCYbBNcKmCmEKA/ZByoUBqMMAAOQUg4B3qZ7RDj4nkd7eztfbNzEu8uWs2rtOjzuY6/DHzdmLBecfw5zZp5M8sHdEnoDfNS6Z/Vc/wCOtSU0XP8a7rIj26DQbnbzdUo9H2RX8k1yA57o+8phJ7XATd6UTjJHuDDbQv/9E61pnDX6TiblzUcE5wfYhDe4tDXkH6xQGIAyAAzCl23sbbx7jrV0PZOGhkZWrV3LX5/7B3UHoiamLawkJSdz1YLLmXfaqQzIzu4ppz94Z2SLicKZP3TN/osIcP17Kluov/F1Oj89tOv/UNRbHXyWWc0bOWU0W5whkDb6scZLCmd1kD3ahS3JQzg3ziRa0/jepEcYkj7Z36SSBCn6JcoAMBBfXMBDwAIgT+cUIaVkz969vPifl/hszRo6HQ6kjLrx7qgwCTBbbRw/bgy33XwTY0aNCizjq7fef4YQImoXxaWUvwfu1TQJJLT9ayONi1ZAy9GJ7hGSffGtLM0pY0PaAZwmidR1kMQuQnhz+acPdjP0NK+7P1I7ZtPicrll+t9JievaBai9uY8JIe6JjCQKRfhQBkAUIKXMx5skZnLAoW7Pp7SsnDeWLmX9hg2UlFXE/NKASUBeXh7TTpjCmd+Zx/jjjws8JaZm/X6klHHADmCQr0kAuPbW0XDNEpxf7e/x2r5QGt/GewMq+Da5gSp7R8wvDQgTxKd7SB/qZOBxLpLzIj/ZFpg4efDlnDHiFmzmrkRT/htbAUz2VXtUKGIWZQBECVLKRA56AzJ1ThEAbrebktJSNn71NR989BFbt+3A5Yo9b+SIEcM5/ZS5nDRjBkMGD8Zq7VYRT28EWwOcI4RoiIyEfUNKacWb92GGplngkTQ/9Cmtj69CdobecHMJSXl8G1uSGlmZWU1RQgvuGDQEkga6GTDWSeZIF/EZboSBqcrs5mTmj76DKfnnYhYW6K6X2/AuBRwwRjqF4uhRBkCUIaXMBl4HZvZwSpch0NzcTFFxCW+/+x6ffLqSjs6o9YgDXpfuKXPmcP45ZzN82FCSk5MPta3PTxneWf8iIUTUb4bXKQQFIJxflFN34X/wNOjv+Q8VbiFpMbsoSmzh48wqPk89gCPKcwiYLJA91kHuRAfxGR4scbJ3mfwiQJw5iaunPM6QtEn+Jq2eRkWhKYWirygDIArxBZD5vQGDejitq5KcBDo7Ovjok5W8/c67FJeX0dnpoLOjw7B4ASHAbrNhj4unID+PeaeeyhnzTiMtNdV3vJvq6QkZUwM/dHlxdgK5mmYh2100XLeEjnd29HBlmORB0mpx8VlmLZ9kVFFj76DT5MFp8uAxKF7Aqxd27PFxDC0czPhpBZSlvonb1hax9f0jJTtpKDdOfaan/ABRuwtFoTgcUfqTU/iRUp4O/JbgLIJ+uj1Dt9tNxf797Nq1h+27drJv3z7KKyrYX1lFZ5hTDVstFgbmDKAgfxBDCgsYMXw4o0eNonBQARaLJfD0njrM9cD/CSFeDKuwYUBK+STwA02TkA43rU+uofnBT8BpnB3jFpLKuHb2xreyJ7GZ8rg2arOhklacjnDrhZmcnDwKCwsYPGgQI4YPY+yY0eTn5WE2m1lXuoRlO5/C4Y7evBcTcuZx3tifkmBNA508FCpJkCIWUQZADKDJIrgAyD/M6Qez5UhJU1MTdfX1HKirp6hoHzv37GFfUTHllRU0NjQelVypycnk5OQwfPgwRg4fxpAhQ8hITycrM5OUlOTASH7oedAH2M/BGX/M7W3zbevcwcH4De+e/3UlNN6yFNfeA4f+9hHEIyQtKQLx97NoyBQUFReze89eioqKKK+ooKn56DIpp6amkpczkBEjRjB82FCGDh5Meno6WVmZJCclBemF093B0u2P8GX5W0f1ueHEYrJxytDrmD30KqwmOwQnCZolhCgzRjqFom8oAyCG6Ksh4MftduN0unC5XbjdblpaWigrr6C+oYHGhgYam5pwutxBywZCCGxWCynJKSQnJ5GensHgQQUkJiViMZsxWyxYzGa9WT4cftir5GBkf3QHMRwCKeUzwE2aJiFbHDTd/S6tL32D8ETJ6O8j8ZYZJN8/D+xm3G43Lrcbl8urF41NTVRU7Ke+vp6Gxkaamptx6eqFd5knKTmZ1ORksrKyKBxUQFxcHGazGYvZgtVqwWzWXdD3v5kAqGrZzX++XkRt676wfu+jIcWWzZWTfs+gtPF6SYK+xBsPEN4gD4UihCgDIAbxxQj4DYHCw5yuJRLPu7cjXUxs6esNUsqZeCP//fdXADg3VVB/xUu4K5oNk00P87gBZPznMiwj9DabhIXDPV8B8G3VByzd+jCtzujd6DEkbQJXTPw9KfZsf5P2uz0phPixAWIpFH3CwE02ir4ihJBCiEVCiCF4CwvZgEeBw+Upl7340zuvt9ceqqOvAB7zyWoWQgzxfYdYH/xTgD8TYFx56ttp+uUHUTf4i3gLiVdNwlKY5m86kmfa2/be6oT2esYPnMf80T9GRHG3tK/hG5Zs/g2NHdX+Ju1zv1JKOdYAsRSKPhG9vzRFr/AZAy4hxL1CiEF4B9hHgNI+vqVeh93XQboM+ANgE0IUCCHu8cka04O+HymlCXgXmKhpFgD/n73zDo+jvBb3+80W7apLlrst94ptwFRjuqkBAiTUNG4SSHLJTQ8ESO7vJrkJDhBSCCk3jTRiEkKAQOjNpphqio1777Zkde2utsz5/TG78mh31pZsaWckfe/z6LH3zI50tJqZc77znRL57ZvEX97iil4Hwj9zOOGr5kDQB93/u+Yz5N018Nlsw7pG7Ut9AThq5HmcMv5jh/AtC8f6+td5dsPvSKRyqv9qgEfSjb00Gs+jHYABRtrA3qSUGocVHRhK96IDvUFmlT8c8CulapVS3xjAfdMXAidlCxNLt9J+11JXs/6dEAWlXzkJo6YECpuSuAPrGqzBiv6MU0rdRNecCQAxlI+Txl1JbeXsAqrXQ5Swau8LbGl6z+noROC+9DadRuNp9EU6iEgnEQbSX36sRMJRWE5CDVYGe1Ge0zuAfUAjsAcra38bkAQSQGIAG/oc0g/4Lewf62xlhbV20PylfxP55wpUyluBjuL/mEvFXReSLri3K/cacCb7r4sxWL0MhmNdF9VYkSUnYkBD+msXlrHfTTevCxG5Hfi6TaQA1tS/zD/f/z6tHd7ttjuu6igunXkLw0omZET2z/RlrKRAb10EGo0N7QBoNIeA46jflBD9yzs03/IU0uKt5nCBY0ZT9cfL8I3LqWPfChznVl/7tFO6mK59LhQIr29/kEdW3kEK7/qVE6uO5Yo5382XFKidAI2n0VsAGk0PSe/xXp0tN1tjRO59B7PVW8af0iJKvzIf39gKp6OL3Bxqk44OXIHliGQQUMwddSEnT/B2PsDGxmU8t/439hJJ+6JqPtY2kUbjSbQDoNH0nFvpWn6pECFyz1t0vLoVL633REFw3liC82qt8Ytd2Qbc4oJaXVBK7cAqCe2C3wiyYNJ1TK2eh/LslrrJO7ue4J1dTyB05nzYlb06HeXQaDyHdgA0mh4gItPouvq3av7f2U37r173lPEHUCVFlP7nCRjDSjIiu4aLPBSevgWrr34GAcsJOH/6F6kuGeN8lgeIm1Ge3/gbtjS+h0hO4udYYIl2AjReRDsAGk03ST/Ef4+VKNeJubOFlhufwNzlrZp/gPBHjyR4yvjMy+z9ac/0r087ImcDr9vEAjC0ZAKnTbiGoL/YFd26w77Idp7f+Dva4o1Oh08EXkiXjWo0nkFfkBpN97mVnGQ1iD68ivh7uzzT6z+Db9pQyv/fGahQzuJzD/BhD63+AUi3gj6driWrYigfR4/6AMeNvtja0/AggrB+3+ss3vRHrPmcKLpuBZyEzgfQeAztAGg03SC9+s9J/EuurSfyp7ch4q35RSrsp/zm0zDKQhlRduh/r8NprqOUipGbDyA+FeAD077C5Jpj3VCrWwgmS7fex2vb7idldlYuZOcD5Cuz1WgKjnYANJqDYCtVs3d4UyRNove9R2ptvUuaOSOGInzlHILnTM6Yn+yyP9cT/w7CLcDSLJkoFJfM+CYjy6a4oVO3EISn1/2KdftexczNBxiDtRUQcEE1jSYH7QBoNAcnO/QPQPy1bUR+/QYST7mgUn58Y8op/vjRGKWOi81F6VW2Z0mXBp6O1aCoC1XFI1kw6TOUFtUUXK/uEk2188rWv9LiPC/gBPRWgMYjaAdAozkA6WE/2aF/BdB+50uYzd6ypWIowhdOx3/MqP66+gdAKZUATiVrpoXCYPrQU5gz/Gx8eDSxXkw2NrzJK1vvI2nGnd7xKRGZVWi1NJpsPHoHaTSe4VYcQv/td79K7PmNbumUF/+IUko+czzK5+jbe6ns76AopRIisgi4MS0SAEP51NmTP8v25pVsbX7XPQUPgCnCS1vupTw0jHljL8dnBBT7nbFKYJGInKaUaugrHUSkCqvV9yis1s4jyN/SuRVrlsf29L87006YZgDjzZRajcYDpFf/m4Aqm1jFX9lK02cfIrXZseTLPUqDVP36UkIXTc9I7Mb+JeC0/uQAQOfMhSVYXfUyKIDm2B7uW/4ttjS+44pu3SHkK+XSWd9k9vCzMiL7578U629yWL2ORaQWmJ7+moxl7M+k63V7KOwC/p3+dz2wGnizv11DmvxoB0CjyYOI3A1cbxMps7WDli8/RuSB5Z4b9lPyueMp++7ZqLAfuhqaV7B60ntrPGE3yTMvAEDtbFnNX96+gaaO3S5o1j2GlUzgqjm3MqJsckZk/9v8UCl1o8NpjqSrCEqAY4HzgSuxVvaFZCtWpcZvsUpKI/312hrs6BwAjcYBETmVrsYfAHNLE7HnN3jO+PumDaX4s8c7Gf+9wH/05wd0eoV8LpCz1B9ZPpUTaj+MobybWF/XtpmXNv+FSKLF6fCXReTEA50vIkUicqeI7ASiQD3wBPAlCm/8wWqD/Q1gHdACJEVkq4jcppsd9S/0H0ujyUJESoAfZ4mVtHbQ9K2nkbp2N9TKiyryUXzlbHxj8g77WV9onXobpVQb8EEckgKPHXMJ04bOx6uPM1HCe3ufZdnORzElBV0jr37gzyIysss5IgER+aGI7MAy+l+hZ8Ze9eJXdxgD3AA0iMgv0wOzNB5HbwFoNDbSK5glWJ3bMiiA1tuX0HbrC+Cx1X/w+DFU/fkKjFFlGVFGwT3ABK+X/fUEEfkB+5MCM6im2C7+seI7bGx4yw21ukVJsIoLpn2No0aemxHZL6Q3saoeOrDKBK/GmiPQHRyf4x2pdpqje2jpqKOlo47Wjn2kxDmvL+QvoaJoOGVFQykvqqGsqAafkTeq0t0bYBHw30op72XLagDtAGg0XRCR27BWMhkUQPylLTR+9O+YDRF3FDsAVX+8nNClM53K/n6ilPqqO1r1DXmSAgFUe7yBn7x8Fe0JjyVn2igJVPHxuT+ktmIO5BrSl4BJWEl8Tjg+r5NmnF2ta6lr30xd+2b2RbZS376dSLKZVCqBSRLTTGJKClOcbbdSPvxGAMPwYygfQSNERdEIakpGUV08jqEl4xhbOYvSYDUqv9nI5xj8Fvg/pZR3vbNBinYANBobIrIVK5wJ6ftD2uM0XvcQsX+vRpneWv0XXzWHil9fmq/mf/pAWv1nEJGhWEmB021iJSK8u+sJ/rnye/nq711HiWLSkGO5bNZ3KA8Nhe6tpjuf00kzTjwVI2l2sLHhTVbvXcLa+leJpSLWu0xBYW079Ja+6dpLDIQRpVOYWjOfmcNOpzI8goARIuALYagu2y/5fng9VlTgFqWUt/bRBinaAdBo0ojIDOB9m0iREiJ/Wkbrt57BbPGWLfXNGEr1ny7HP93RkNymlPLMtL/eRkTGYTkBtTax6ki288Tan/HWzkc86wQEjDBnTPoU82uvJuArAmeD2flsTpkJ6iPb2NO2nq1Ny9nWvIJdbetJpty7Hg2lqAyNZkTZFMZVzmFMxUxGlE4mHCjPvOVAHoh2BDyCdgA0GkBERmCFlifbxMqsj9Bw2V9JvLUjz5nuYJSHKL/rQsKXzASfFaiwHe6XNf89RUQWYmWj21GtHfXct/wWNu97p9dWwr1Nsb+c86d9hbmjL8iE1O2KpgUm6+pfZdnOf7OrbR0tsT10JL23BaUwKAvVUFk0kqlDT2TuqAuoDHXNacxz6jYsR+DmgX6tehXtAGj6Pel94TKgHKvTmR/wpb/8dL3OBYikv9qAmFIqJiL3ANdkfWvV/pOXaf72s54r+ytaMInKX12CMaI0I8oouB0YNxgeqOm/+2LgZJtYAext28jPXvkoKQ6rx06fEvQX86lj7qa2YnYXecpMsLLuBV7cfC97WjeRMGNA/6jiNFSA0qIqjhl5AfPHfYTiYKX9cL5rMtNX4JbBcN16Ce0AaPoV6aYw04CJWIlgPcmWzscerK5pmTapCiC5pp5959zjucQ/ozxE5W8uoegD0zIi+0PzDqVU9qp4wJLu1rgYONImVgDLdz/DP1d+l45k1BXdusOE6rlcMet/KSsaQlu8gc2Nb7Nk0x/Z2bqO7ifbe5OAEWTu6As5bvSl1JSMI+gLZw7l+8VeAs7X2wKFQzsAGk8jIkOwJqidjmXsC1FfrMzdbTRe+0/iizcV4Mf1jOKPH035HeehSoIwgDr+HSr5tm9SkmTJ5j/x/MZ7XN0vPxAGfmaPPIvyoqGsq3+VPW3rkX5u+LMpCVQxpeZEZg47nak18+yOAOQ6A8uAy5RSmwum4CBGOwAaT5Fe4YeAT2C1Or2gwCoogLYfvUzrwhcg5q0Qsm/GUGr+9Qmn0P8+YLZSyrs9cfsQEZmJ1SkwM+DMmtgYb+Sv797MpkbvVqApDJSSvCV6A4XiQCW1FXNYMPk6RpVPRe1v3JT9i28HPqmUerawGg4+vNk6SzOoEBG/iNwuItuAOFZ70bvpnvHvzW5nVuh/dR3R+5d7zviLoSj7r3kYw3OMP1gd/wal8QdQSq0EfmoTCSAlwSrOnfJ5ioOHOxen7xDMAW/8ASKJJlbve4nfvnk9T637JUkznol2ZC9ExwBPi8iPRCRUeE0HDzoCoHGNdMvdTNezId08LfeaNQVpi2O2dkA8haRMSAmSTFld+2y1+8pQEA6gigOokiAq5EeFbFOxEyZtP1hMy50veirxTwxFyZVzKL/zfFRZTunYVuCIwb53mo4eLQHsvfWtfIA9z/DQyoVEnfvxa1xgeOkEzpn8eSYNOf5A+QFvAJcopXYVVrvBgXYANAUn3cglY/jDB3l7l2tUkiapnS2k1u8jtbmR1LYWUrtaMfdFrGS9aAIzbqISKcykCckUYjPkhk9hlBahKkNQGcJXFkJVFOEbXY5vfBUSTdDynec81+/fqK2k6teXEJxXC0ZO2diArvnvCfmaBAG8sf0hHl59O6apx9x7hSJfGXNGnMHpEz9NVXhURpztBGwAPqiUWlVY7QY+2gHQFAwRCWANNfkWUJrnbTnXZOL9PSTe2EHirR3El+1EGqOYkQQSS6ISKSSeOjy9FBhFflTQj4ggrR2H9f16G/EpSr54EhX/fSYEcvZNtwHjdfnUftLT9ZawPx8A0k2CHlq5kHd3P+mSZhonFAZDikdz8YybmTTkOPsh+zW9DyvBVTsBvYh2ADR9SrpW+1as1X5tnrd1XoeSNCGWxGzpoOPRVbT9aRnm6nrMpIkSuoTzBwtGdTFDHr8G/8xhGZH9Q7hdKXWTC2p5GhG5HPhbllhtb1nJ/e99m7qI96o7BjvhQBkXTv86s4ctwO/cIbEe+B26X0CvoR0ATZ8hImOBe+naqMXOfsPfHiexfDfxV7bS8cwGEm9uR6LeSsJzheIAlXd+gPDHjspI7A++l7FWRfph6ICI3A1cbxMpgPf3Ps+D799KJNHkjmKavAT9xcwbeznzaq+kvGhoRuw0NGnAd7osBNoB0PQ66WSszB7/qDxvUwBmXTvRB94n9tQ6UqvrSO1s8dy4XTcJf/xoKm4/D1WaU/P/Kpbx115SHg7UJOitnf/igRX/64pemgOjMBhXdTSXzPwGw0omgHPjIJ330gtoB0DTq4hINfAoXTOxM3S53tr/73Xaf/4a5p5WzGgC7c93xTdjKNX3Xol/SmeBROYTasRaAa1wR7P+g4gcg5UPYE82VSlJ8tiaH7N0699d0kxzIJQoRpZP4YrZ32NY6YSMOPsJcb5SSid0HAa6D4CmVxCR8nTIdR25xt+qtReQhijRvy2n7qi7ab7hcVKbGpCINv45+A3CF07HN6YiI7F/Qvdq49890jPoP5Yt9yk/p024hrEVs6wsUI2nECXsbF3LQ6sWsqdtY75+AfeIyGSH0zXdRF/5msMmvdf/L7qGWsE+0nR7M7HH1xJ7cCXx17bBYWbuD3QCx4ym6g8fxje+Croa/73ApMFe899TROQO4Gs2kQJYt28pf1/+P7THG91RTHNQhpVM5LypX2D60M5UIvv9sBorGlZXeM36PzoCoDksROR4rBBrtvG3jidSRP++nMaP3U/rN58m/uJmbfy7Qcm1x+KrrXQ6tEgb/0PiZqy8iQwCMKn6OM6Y+Gl7W1qNx9jbvpGHV97G2vqlGZF94TodeDzdVEzTQ/RVrzkkMu17sYz/uKzDClASTdDy9cdp/vy/iC/bgUR1A5buELpwKuGr5mQa/tjZhmXIND0knSx5ObDTLjeUnxPGfJjjxlzijmKabtHcsZtn1v+SfZFtTofnAk+kS441PUA7AJoek/a2FwNfZ/8IXUgbfrO1g+i977J3zl1Efv+W1bBH7/F3C2NkGaU3nAZ+A9L97G2HFymlvDnWrh+glNqBNXc+gwD4DD8XTvsaE6uPcUcxTbfY3rKK5zf8LrNdk23s5wNLtBPQM7QDoOkRtlar87IOKYDUtmZabniCpq8+hrm7reD69WeM8hDl3zoD/5wRTodfRq/+ewPHrQCfEeDcKf/FkOKx7mil6Rbv7H6Mx9fcRTwVha6DvMByORiXxwAAIABJREFUAhZrJ6D7aAdA021EZByW8Z+bdUgBJN7cQcMVi4j+/T2IxAuuX38ncPxogmdNQu1f/WfYAZyhG58cPumtgFOxBihlEKUUo8tncPK4j1DkP9h4Co1bmCK8vesxnlr3CwQzI7Yb/JOxOo9quoF2ADTdIm38l9B1yAqAkqRJ5C/v0HDpvSRX7IGE6fAdNAfCKA9R/Mlj8I0sczq8SDf86T3Sn+WiLLEYysdxYz7ErGFngdKPRq8imLy581+8u+tJRByfNVcXWqf+ir7KNQclHfZ/AsiOjyozEqf956/SetOTmE1RF7QbGBSdPoHgqRNA5Uz62wrc4o5WA5pbsFrKdsFQBh+ccSMTKrKDXBovEU9GeGHjH9jVutapR0CtiByV51SNDe0AaA6IiAwDngem2cRWsl99O61ff4LWW1/AbNa5aYdD8KRajMqQ06Fa4Hm9r9m7pLdTzgSW2sQCEPCFuOSImxhdNsMV3TTdo65tE89t/C3xlOOz528i4phMo9mPdgA0eUkb/yXATJvYSvbb2kTjNf+gfdG7ENHlfYdL28+WEntyXealTm4qAOmtgNOAV2xiAagpHstpE6+hJODYi0HjAUQJq/a+yOvb/pER2e+PKcAD6bkkmjxoB0DjSHqQylPA1OxjZl07Ld94gvhLW1BJvd/fG6R2tND89cfpWLzJPgxJJzf1MWkn4GysHgs2ucHMYWdwxPAzdZMgDyOYPLn+l+xsXeN0eB76njkg+srW5CAiRVjGf45NbIX9G6K0/r9niD6+FkydlN6bmJsbabruQSL3vpPvs/2oiIwvsFoDHqVUFIf+AIYyOGvyZ5k29CR3FNN0C9NM8Oiq22mL74Pc/gBXi4i2c3nQH4zGiVuB422vrdG9e9tp/txDtC96F6VH9vYJ5q5WWm56ksjv38qkAtofaGOAR9ITFzW9y81YvRYyCEBpsJr54z7iPJBW4xm2Na9i+e5nMCUFXe+Z0VijyTUO6D1FTRdE5AzgWZvIMv4tMZqve4jok2u18S8AvlFlVP7uwwRP7uyybP/QXwZO1X0Beo90fsUmrKTLDArgD299kbX7ljqe53V8RoCK0FBqwuMYUlxLWaiG4kA5IX8ZpiSJJJqJxJtpiu1mb/sm6tq30JHsnw28xpTP4KNH3UFFaHhGlLk/tiulavOcNqjRCRKaTkRkBvC3HHlHiva7ltLx3AZt/AtEamcrrT9YTOXPP4hvXCVYxijz4WeSAk/TTkCvcStZxl8Q3tn1OJsb33FLpx6hMCgJVlJWVMO4qiOZOmQe46vmEvL3bE7Ovsh21ta/zNr6pdS1byESbyKWbMfr/by3t6zi3d1PcMq4j6O69nEYIyJnKaWecUs3r6IjABoA0mHlxcARNrECiPz5bVpuegpp0aV+hUQUhC6aQdXdF6GqOrvT2Z/CL2GNQvX2k7kfICKbyXIAWmJ7ue+9b7Kl8V3Ewx9xwAgysfo4Jg85ntrK2YwonULAl1NS2p1fIMseCE2x3exoWc2mhrd5v+4FWiK7Pf1ZFPvL+czxv2VY6QTo+ju/ghU101nLNrQDoCFdKuPY379j8SaaPvEPzIaIC5ppxKcovnIOlb+8ODMdMPvpe5tSSs8IOAzS4X/7jGolCO/uepIH319IwvTqtW8wvupITptwDaPLZ1ASqMxe+R6upe60D4lUjMbYLt7b9RRLt/2NaKL1ML913zFnxNlcNacz+d/+GdyhlPqGCyp5Fp0EqAEr/Gk3/gpQyTX1NF37T238XUSlhNiD7xO5712QnI5nYGU5a0f+8Dg3W5BIRVlVt9ibxl8UhhFgwcRPc83cHzOt5iRKg9V24589RfKQf1Lm+wR8IYaVTODMSdfy2eN+y5jyGXh1/bh670vsaduQeWlXUt8rWegPY5CTXv1vwsqWzaCkMUrj5x4m9sRalC73cx3fjKFU33MZ/plDndoF6yjAIZI2CIux+ixkULta1/Kr164lYXqrvXWRP8zkISeyYOJnGFE22X7oQDfpBmAXsDb9/31AM1YOWA1QBRyJ1fOjFjhQ0oACiCZaeGXr33hn5+M0RLZ7bFtAcVLtVVww7csZp8iu3O1KqZtcUsxzaAdgkCMidwBfs4ms4T6/e5OW//esnurnEcRQFH94FuU/+QBGeQhy5wXMUkr1z/RtFxGRhUB2WFjd+85NvL/3WadTXKM4UMU5Uz7H7OFnEw50Do3KZ3nrsHob/Ekptay7P0NEioH/xhqoky9zvtNu7Gxdw5JNf2TF3hcwTe90BB1WMpGPHX0HNcWdv0Lmc9qmlBqX57RBh94CGMSIyCzgUzaRVfK3p43IXa9o4+8hlClEH15J9N73nPoD1KJrnQ+V7Mlxqq5tE2vrX3RFmXwMKR7LJ4/5KceMuihj/POF+bcBtwMjlFJf7onxB1BKRZRSNyulxmNFAu7CcibsdP7skaVTuXD61zlm5AUYHioqa4huZ0fzSqdpgWP1NsB+tAMwSEl3x/oVVvhvvzyRouUbT5Lc2uyOYpr8xFO0fvsZUpsaMpLs/U09/KQHiEgIh9K/13c8SCLlldWsweiyGfzH3J8yqmw6PiMAzoZ/K3AbMF4pdVNvVIYopaJKqS9jbQ/+ENiR9RZRSlEarOaiGTdw3NiL8anA4f7YXiFpxllT/wodScccDu0sp9EOwOBlIWDvcWrt7f35HaKPrHJHI81BkUiC5hufQNpyojPVwP16ddMjcgxBc2w3K/a84ImadyWKCZVHcuWc/2VI8VhUbu4HwHJgjlJqfHrl3uuKK6WSSqkbgdnA/2UdFgC/EeTiGTdx3tT/sm9PuMraupdpiu3KvOziLLugjifxTsxGUzDSq3/7TaAAkivraPvJK/0y6U+F/PjnjsY/oQqjKowxpBhVUYRRGUaVBpHmGGb6K7luH6mVe0muqUM6Ugf/5h4j9uJmYo+sInz1kdmH5mMZNZ3k1D1yDMHKvYuJxpvc0CWHoWXjuXjmTdSUjAPnVf9rwHlKqYKE65RSTSJyPVavEHvSZEY3dcLYy0iYHTy/4Q+uV1BEki0s3/MMw0snZZdHjhURpftnaAdgsLIQq6/8flJC5M9vk9rujYdftygNElowmdClMyg6ZTwqFACfAQYon2HVzWe+TOn8MhMpVMLEbOsg/tZOOh5bQ+zxtUijtzK+86EiCaIPvE/wzEn4hpdmVjaZh9nVaAfgoKTD/8NsIpVIdbCp4R0SpvsNryrDI/jYkT+kpiRvB9uXgAVKqYLuVSilREROwyodzkkU9BtBTqq9kj2tG1i+5ylMcdfGLtv5GGdN+qzToZMBbyV6uIB2AAYnuav/VXuJPbYGEt5tlCWGwigrwjemnOKPHEX4ytkYw0oyZXEHJuMIAEbQB4CvMkR4TAXhD05H2hPEHl1N+z3LSK6pw2yKerrtcXzJJhKvbsN30fTO3yvNWBEZrZTK3q/VdOW72YLG2E7qIxsRlyf/hANlXDrzm9SUjM2I7ArtBe4BbnFrBZv+uTeLyHeAHwMZCyuACvqKuWDaV9gT2cjulnVuqNhJc2w36xteZ8qQE7MPXYl2AHQOwGBDRIaQs/o3af/7clIbG5xP8gBGZZiSjxxJ1e8/TM1z11LyxXkYw0vtNfGH/qUUqjRI+Ko51Dx2DdX3XUXZ104hcPwYCHjzFpFokrafvIzZ4Bi10N3ODk5O+L8hsoOGiLt+k08FOGX8xxlfeTRp39xu5PcBZ/TVXn9PUUrFgC8Dr9vEAkhp0RCumvV9aorHOp9cQN7d+aSTWOcBoB2AwciN2QKzuYPYH992Q5eDIoYieME0qh74CGU/OJeicyajijszoXu94xk+RfDEsZR+41Sq7rmMyl9egm90eS/8iN4n8fZOove+m3lpDwNcKyJDXVCpX5BuftWl8ZUpKbY3v0/CdLf0taZkPMeOvpiArwhyr+3fKqU8laGrlOoAFgA5D5BhpRM4e8r1GIa7lQGbGt+yhhl1vUeqRGTQ9wPQDsAgQkSmAjfYRNawn3ve8ma735IgFd8/h6pfX0LguNEYFZ0NcHpq9Ld1832dToUK+vDVVhC67Agqf/9hfOOrDnZu4UkJbbcvQdpzjFYIa49W44wvWyCSYosHpv6dPvEaSoPVTodeAm4psDrdQinVDlwA2OP9AjCx+hgmVOQkqxaUWKqdve0bnA5dX2hdvIZ2AAYX38oWmI1R2n75mhu65EWF/ARmD6f6r1dQ8l8nYpSH8pVAZcjUQFcCZUAxUAQEAV+685cv/boo/Z7q9Dlb83xPq/G+zyB4Ui01z3yK8EePyjghnsFsiRH5g2P05ur0SleTy8RsQTzVwbbWlW7o0sn0mlM4ckTnWAL7tf4mcI4Xwv75UErtBj4I2FcSUhKo4ujRFxDylbqkGcSTUXbtz0XQ5YA2tAMwSEgbg5zkv9YfvYzs887q36gMU/qNU6l+9BqKzpyUETut+uuBnwFlthroFqVUu1IqppRKpOuXLUOulKRfJ9LvabJ1PPMDdwDbs35GZ0TAGF5Kxd0XUX7Xhfim1vTNL3+IRBa9g1mfE+IsRjc8ycf52YJtzcuJOzeNKQjlwRrOnfr5zEv7tb4FuDC93+5plFJrsNoPd2HmsNMYU36ENd/aBVJmkj1tGzBzuwKOSZdED1oG9S8/yFhIVugztaOF+NPrIOmNzH9VHKD05lMp+fyJGNVhyB/ufwmYopT6Ujr8eHg/VykzPSZ0EvAjrMEp2YjyG4QvnknlTy/EN8E7WwLm5iYSb+7MvNTTzw7O8bb/K4ANDe5GwY4b+6F8JX83K6X2Flqfw+AWrEFDGSTkL+PkCR/FMFwKSCmhMbaLaLLF6ah3bmQX0A7A4CFn9R9/fTvmTo/M9Q4YlHzqWEo+czwqfNB2p6f1RfOTdHTg68BYnCMCVpLg/HFUL7oSo7ayt1U4JFItMeKvb3cq4RyFzgVw4rRswdYm98L/JYEqpgw5MdNG137d71JK3eeSWoeEUiozhKgLU4acwLCSCS5oZNEW20cs4fis88ZN7BLaARgEpMP/o7oIEyaJV7ZgNrsfWVRlRZTdcjpl3z8b/DnjOwFWYu2B9lm70y767I8IHA8stR1Klw2C/4jhDHnoY/hnu99+XwnEF28ktdvxATfo9zntiEgNMNwuS5px9rSud0kjGFk2neri0U6HcgxpP+FmshJvlTKYP/5Kl9SB1sQ+oknH++O6QuviJbQDMDjIsVLmvgjxN3ZY3fFcRAV9lH5xHiVfOCm7oU2GN4FTlVLPFFi1TGLTacArWYes/ueTh1Dxw/PxTx5SaNVySLy3m+SGBsdJgXoboAtTsgX17VtIijvlfz78TKg+ipKA40L05kLr0xuko3N250UAZgw9jfKgO9WpbfFGYonOadk6ETCNdgAGBzlJT6ldLSTf3+OGLl0Izh9H+Jq5qKLO9AS7R7IUy/i71qFIKZUETsXKO7AjKAieMJbiTx8Dxe7WOkssSfz5jUjScbZBTtnbIGZStqA+ug3TdCcPJuALMap8enaverDm1ntlJOGhkFNxVOQvYWzVLDd0wTQTtMX3OXV5HNTjgbUDMDg41/Z/BRB7Yh0SS7qkjoVRGab48yfiG+k43/xlrL1+1/colFImViTgtpyDPkXxtcdSNK/WrSTnTqKPr0ESjg7A1ELr4mFyHICGyHYEdxwAvz/EyNLOoIT9+u+v4f8MOReioQxqK+a4oQsATbHdmKbjM2/QlstqB2BwcFa2IP6Me3ueGYo/dzyhc3MismC1Fj0rvfr2BOm8g1voGgmwmgaFApT/6AICExwbuBSM1Ko6kisdE8YvLrQuHsaeC6MAGtq3u9b/f2jxOMpDQ6Gr8U/ST8P/GdL3S9c8AAxGlU8jaIRd0akpuhvT2dEbtBEy7QAMcETkRKBLL1uzKUr8XadKt8IROHMipV+cl3lpf/htAC5Ntxj1FOmH2unk5gTgn1hF+ffORnzuhgFiDzhms+dsAQ1iRtr+LwAt8breaSh9CIyvOspJfL+Xm/70gJw8gJJgJaVBdyrv2uMNiOgtMjvaARj4XJYtiL+4GTocb4TCUByk4n8WoMoc+51/SSnlrndyANLbAWdhJSdmEIDgqeMJnZHTZK6gxB5dnfmv3RM5WUSKXFDHi9i7OCmA9niTVUrhAsNLHa+X7HyT/sqvsgVFvhLCwQo3dCGSbEOcxxNrB0AzYMnJcu140r3wvygo+cRR+Kc7ZgP/Qin1WKF16inpvISrcuTlRYSvOhKKgy5oZWHubCG1pdHp0AmF1sWjFGcL4in3gk3DShwdgPcLrUcfkdN5p8hfQjjgznCtaLw5X66HTgLUDDxEpJKuIU9FPEXshY1uqYRvWClFF82wT/TLUI9Hh504oZTaSNc5AoJSFJ0+geCRI1xLCBRTSLzhONL2mELrojk4ZUWObaU9NfHvMMjprRz0hQn5c3ywghBNNukIQBbaARjYjMwWJDc2IM4z5AtCYPIQgnNHOR1apJRy7NXpYXIytY1hJYQ+dARGyJ3EYjGF+NuOOyiO2ZYad/EZjrbH3ZnEvUdOaMWn/PgNdwZqtcWbMXUOQBe0AzCwmZ8tSK6pR1LulDyJTxFcMAlVmhMib6Afrf5t3IJDFCD0wemokDt9AZQpJNfVd760HRrUDU9s5CwB3Yz/KudHsIsJOr2HQyWAKGUQ9Icht+9Bn5My48RTjgOfSgqti1fQDsDAJmfVl1y117XhP0bQT+iDMzIvu9Q898ZQn0KTfsDlRAF8o8opOs+90nvZF0FyWzxXiIg72VfeIif8FfC5lx85CMrSHsoW+FQA5VLZRTzl2FbEvVnFLqMdgIFNzgCgxIYGcCkC4JsxFP80xz3PnK5h/Qin3gCUXOvelnuquQOz3nGl404fVm+RE173qwDKpTiArT2tnYE0oObSbEE8FcGlvkv4lOPW3EDZcukx2gEYoKTnXI/pIksJsqcNUu5430UnjetUxSb+V19M9isU6ShAjgMTmDsaSt1ZWUo0nm/I00AyLIeKvb2uAPh8ftf6AOQJSZcVWo++wOEZpExJkTITiEtll37naI97SVEuox2AgUvOhBppjGK2uFfyFDxlnJN4SaH16G2UUkuArqn3foOi+Y7z3fscaU/k+zvrLQCHzPSAEXLL/tOeaHISTyu0Hn1EjrVNmol8Yfi+RxR+w7FE1/V2426hHYCBS06xrdkSQ2LuzBcRQxE4yjH7//FC69JH2H8PqzHQSS45ANEk0uboAAzavU4b9dmC4mAlKHe2APa0bnASu9cwv3fJcTg7km1E4+4E/IqLKjGUY3rFgEi6PBS0AzBwyQkjSmscibrTXt8/uhyjyrH8Z1Ohdekjcrq3BaYPc0MPSCSRiKOjd1KhVfEguQ5AoArDpZD07tZ1mf/aPZC5LqjSF3wpWxBLttHmHPXoc4oDFflyPVzKSHAf7QAMXHJKWyQSzzcuts/xT6sBw/HmGwg9zwHezhb4al2KuCdMJN75d9algF3JmYFdVlSFWxNht7eudhJfICLutZPsPXKut2iilfa4Y6fKPqckUO40dhm0A6AZgOQutztSkHCpAmBkOcoYuDXPOCUShf0Y1e50PZP2uFO/hzHpxKzBTE6XpMrQiHz1+H1OS3QPjdGdTof+t9C69CZieVT2PTAlCA3RHURcigBUhIbrLYAsBvvDYCCTU+8iiZRrTYBUVXigd9zO+WCVz0CFXCrp7kjlm28z2O/5rdmC6uIxGM7OaZ+TlBg7WhwHOPX3aE3OhS9isrHhLTd0AaAqPEo7AFkM9ofBQCbXAUiarpUAGpXuZVoXiNyHiKGQgEsOgCk4tz0f9ORk3Q0Jj83XI77PSaRibGtegSmO0Rp3eub2Dt/LFpiSYn39q27oAkBVeGQ+B8CdxCgPoB2AQcTAXoB7E8Pnzi0mKZM8HsCgvgyUUruBLpvQRf4SqsIjXNHHFGF3y7p8++K3Flqf3kBE/Dg0Idvc+DbNsZwUjAJhUBnqjADYb4wdSintAGgGHLlPf0PlS8TrcySSGOiWJ/fXEzDjLj1bfCqfqddxAXjP9n8BGFVxhEuqwM7WNTRGO9tIdNkG6Kc5GwuBsXaBiMmr2x9wrQFQWXBIvjHEOa28BxP98eLSdI/ckLTPcNEBiLsWZi0Qzlsu7e70XVBBf76ky0Gb8WzjjWzBxKqj3dADgPZEIyt2P0/SzOlIOxzLmPYbRKQch9X/psZ3WFfnXvi/IjyMkqBjI8xfFVoXL6EdgIFLbieYoA/D786f3Nzbnm/tOVACA7nj/5Jmvnr8vqfIN9DLLg+HF7MFE6rcm90A8MaOh2mK7s68zI4CjHU4xassBLp0/EpJkhc3/4mEWx0AgYrQMEoCjg5ATl+IwYR2AAYuOXebCvnAJQcgsalhoGelj8wWpBojSEfhtwDEUKiwP2NG7J/61vTsgsHOM9mCytBwKovcyQMA6Ei18vym3zsmAwL3pffVPY2IlOGw+t+w73V2tq4i3wOg7zGoDo+lyF8CXe+HRqVUi0tKeYKB8vDV5OLgAARQfney0lPrGpCEY7WN5x9s3STXAdjsTr2zEfJjlDgOPRnU+502crwyQ/kYWzXLDV06eXvnv1ld1zkawx4FmAc8J251K+oG6dD/C2QNnIol23hj20O0xdxp/gMQNIoYVZ4zGR30/aAdgAFMjmdrlBdB2B17Ky0xkmsco239eRSwnXNt/1cA5vp97mgS9KNKHBvJvVBgTbyKowMw0eVtAIDnNvyGpthup0Mn49GqgLTxXwLkJFJs2Pc6axtecy35D8DvDzG2YrbToX8UWhevoR2AgUvO8lOVF6HCuVvVhSK+eKOTuL83PMmMPT07W97x2jYXtAGjJIAqd4wA9Nuxy71JehtkW1eZwdDSCfkyxQvG7vZNvLf7aUxJQW5+zKdExFOTAkUkADxJ1wFGClDRZCv/XvMTEs4jjwvGkOLRVIVzAnQAiwuti9fQDsDAJScCoMpDqBL3HIDYsxsyten2B1tt+iHSn1mIlbHdicSSJF7b7ooyKhzAqHDsIaMdgP3Yw78CVh5AVci9PAAA00ywdMsidrSsQsi5V4YCD3olKVBESoAfAifYxAognorw9/f+m6ZYTuflgjOj5lSnVs/bdD6MdgAGLOnmFvYZ9aL8Bv7aSsTnzlZi/K2dpLY65tz0q1InO/mannQ8tgaJulQCWBbEqHR0ANzbiPUe/50tqCgazsjyaRgujQbO0NxRx8OrbmdvW2fEzK7QdGCJiCwovGb7EZERWCvoL2QfiyXbeHr9r1hX/1rhFcsiaIQ5etT5mZd2gz/o9/9BOwADnZyL3Dd1CMqlSgA6kkQfWel05GoRcYxZ9wNuxcrU3k9KaP+5ezXPhIP5tgDcyUr0IEqpBF0HA4nPCDCx+jj8vrBbanWys2UVf1v+39S1b3Y6PA54WkR+6Eb0zGb8s8cWq5SZ4PXt/+TNHQ9heqDD7rRh8ykPOY7lvrnQungR7QAMbN7NFvgnD7EaArlB0qTjuY2ZUbX2Vc1IPJrgdCDSe/85OQyJZTtJrKpzQSMLY3+uh33Fs1cp5V4htjfJcZCnDDmBsD9nkrYr7GlZz8Orbs+0CVbk5gR8FVgnIgsLUSEgIn4RuQN4E8hOq1cAGxvf4rmNv6MjmTsc0w2OHX0xeLd4wnW0AzCwWZstCMwageFSKSBAck09iRV5G570t+txITDa9lpJ0iRy79uYLoX/RYFvVJnToQcLrUs/4GayymVLg9XMGHq6J4yGKGFjw1s8vu4ue2VAtmK1wDeAxSJS3Sd6iBgichuwEfgaWY1+ABVPRXl31xP85e2vEU+6m/SXYUTpFEaWTUVZWzq6H4YD/e2Bq+kZ72ULfOMq8Y2rcEMXAFI7mok/uxHpyOkJMIJ+lAuQb+8/uaaOjhe3oJIuddw1FP4ZjiFP97OxPEZ6GyAnGXBe7eX4fF5pT2GybPu/+ceKb7OhobODsZN3cjLwvoj8qLemCIqIEpEfAJuAG8je6kpHJVo79vH0+l/y4Pu3kshtZ+wOopg9YgEhf6nTUb3/n0Y7AAMYpVQH8ES2PHjaRBe0sVApIbroPcyGzlVCdhRgnAtqHQqOe//xZzaQ2tTgjkaAMhRFJ9U6HXq/0Lr0E36eLRhaMp4jhp3ugip5SEcC7l/xbV7b9g9SZgKctwSGA18GdojI3SJypIiUi0goHb7PG9ZIr/JDIlIiIkNE5Hqs2v4byRrsY//ZLR11PPD+d3h16z+Im94I+wOUhWqYWH0MfiOnH8Zu4BYXVPIk2gEY+Dxn+78ABBe45wAAJNbXE/nNG9bI2q6MAf7u9TnoInIM8PlsuVnfTvsflkHCvXk7qrQI/6zhTodeKrQu/QGl1DJgq00koDhl/MddrwbIpiW2l8dX38WSTX8klmyzlwlmK1oFXA+8jZX4GQHiQEpENqdzBk4SkdNF5DYR2YrVHCkCtAJ1wN3A/Kzv2/mzUpJk/b7X+MWr17C27lVS4tLMizyMKJvEyLLOlgldsv91+H8/2gEY+DyVLQidOgFV7p6NVQJtP1tK4q2dnSLb4eOwMpy99fRNk95n/SNgTxVXJE3afvIyKbe6/6UJXTDNaQjQNqWUW4PY+wM5IeGhJeOY6aUoQJq4RHl6w//xuzevZ+WeF4gkOstqnRwBJzI5Ay9hLQ6cQvvZdH5vU0x2ta7l4ZW38ee3v0pLR52LPf6dMYwAx4/5EEGrmsOuXD169d8F7QAMcJRS72GFvTIIQR9FH3C5oVgsScvXHiO1tbMyzf7wmo8H8wHS+/6PADNtYgUQ+eMy2n/7pit62Qlf3KmarnnuPjlGIegLM3vEOYQDjgmVrrOjZRX3L/8fHljxbZbveYZkqnP4Z287zlYGnZhsa1rBv1fdyaL3bubN7Q97Z78/i4lVc5lWkx28AKzVf+6U1EGMdgAGBzkGIHyR+x1F48t30/bzV5FYZ72w/eF1o4iAINoFAAAUeUlEQVR8yAW1HEkb/9uwBrN0IbFsF613vgQxd+uejaowQef9/0cKrUt/Ih0SztkGmFh1LEOLx7uk1cGJm1FW1b/Mg+/fym/e+BzLdj5KR7Id9q/Ynb6cOOD7d7au4Z8rb+Uv797Iq9v/QX37Vs+t+u2cPfk/nfb+96BX/zl4JdVV07f8C/iKXeCfOQxjWAnm3naXVLISAmP3LSd01mSKFkxyCl3/Q0R+BNyczth2hfSwk8fJNf7KbIjSuvAFUtube33p1VOCH5wOIcdb+vVC69IPWYQVGu+kJFjJ0aMuYGfbOpIuzrI/IGISS7ayrWUF21as5OnQL5g57Eym1cxnVNk0Ar4iDMOPgQ/D8KFwTmwwxcSUJKYkSZoJWjvqWVP/Mu/ufpo9rWswTTxt9AGUKI4adT6jyqZmRNl7/+497DyK288sTQFI71vbR/EpszFK87UPEntqnVtqdeIbV0nFDz9A0XmdvUWynzSvAecrpQreyU5EjgLuAY7MOqQkadJ2x4u03fki5JY1FhQV9lP116ssR8q6q+2foU8nPh2YdM7JYqxyugwqkYqx6L2bWV3Xv3IoFYriQCWjyqdTGRpOadEQyopqCPvLCPlLCQVKSZkJoolWoskW2uKNtHbU0RLbR137Jurbt3qik19PqA6P4WNH38GI0snQ9frfBUzSjbBy0RGAwUFOD3ijIkRg3lg6FjvW5BeU1JYmmr70CBW3n0fI2sNWdL2BT8Dqf36pUmpDIXRKDzpZCPwHkF1MrADaFi6m/ZevuW78AfyzRuCfVuNk/HXTk26glBIRuRRYiTV0B4CAL8RF029kS9O7RBOt7inYQwShPdHIun1L9wuVQVAV4feHCPhCmGaSRDJKRyqC4F7lSm/gw8+xoy9maLFjFfEibfyd0TkAgwCn8acYiuC8WtSQYneUysLc2UrzDU8Qf6bTvmdHp2ZhOQG39WXHwHTzk4VYdfP/hZPxT5q03PIU7T97BWn1Rk5R8IQxGEMdW9jqBMBuopTaR25jIKkKj+TMiZ92SateREziZpRIvJHm6C5aO+qIpdr6vfEHqAgNY/aIs/AZOS2wd6H7/udFOwCDh5yOZ4FjRuOvrfJC11MAzF2tNH7l33Q8vd4+LyB7ZsANQNJWz9wr2otIkYjciTVB8RtY5VJ2FKCktYOW/3mW9t+8gUQ9EiItCRI8fgwqd/9fJz71nJuBt7KFc0acy5iKI1xQR3NwDOaNu4ohxY7VjIvczB/yOtoBGDzcjGUQOlEhPyVfOBEVcG82QDbm5kaarn2Qth8sQZoOGLXL1DNvFZHbRcSx/+3BEJFaEfkxsAUrUTJ7IHynE5J4dzfNNz5B+69fdz3j305gyhCKTp2QeambnhwGSqkocFm2vDRYzbzaKz1bFjiYOXLkOZww9sOZl/br/TX06v+AeGTtpykE6Yz6L9tEiliSunPvIblsZ77TXEEFfRSdM4Wy75+Nf2KXGScHMmhvYWXrv4M1CbERSKXPMdJf5VitTY8CzgfOO5AaANIep/3XbxD9wzISmxtRprdsasWPL6D42mMzLzPKtQND9d7noSEiW9jfAtdyAM0Yj6y+k2U7HsYUb10Dg5XaiiO5+shbqdg/8jfzh9kDzFdKbXRHs/6BdgAGEekWu5uweoZD+u8fe2glDZ+433NVPmIoAhOqKfvheYTOmAS+LpdrX2m7/4cImPsiNH3pUeJPrnU9WdIJo7qYYau/ggr7oetn8lul1GdcUqvfkx6Cc6NNZN0ryTZ+8eo11Ee2Op+oKRhhfxkfPfoOJlTNRZEz8e8nSqmvuqRav0E7AIMMxyhAwmTfBX8kvtS7D7XQhdMp+dwJBI4agSovwlbO3JuOgPUU6UiS2tJE7LE1RH71OqkdLQc7zxXEUFTc+QFKrNW//XPYCxyRTmrTHALp3JIlOPTDr2vfzD1vfoGmjt0OZ2oKgd8IcvqET3Lq+E/g9wUhq/IFmK6jXwdHOwCDjHQUwD6wWyFC7NHVNF73ELR7s70nAKVFFM2vpejU8QROHkdwzkjw56Sx9MQh6BpSiCWJL9lE7LG1dDy3keQW74X77QRPGU/VvVdgVOX0PP+pUuoreU7TdBMRCWM5AcfYxEoQVu55gYdW3kp7ouCtKTTArBFnccmMmykOlGdE9uv/NqWU3vvvBtoBGISIyGa6Zrkrc1+Exk8+QPx572+ZqeIARkUI39QawudPJXjKBPxzHCfgdYvkxgaii94j9uhqzJ2tpJqjqJR3DT9Yn0HVny6n6JwpTrX/I/Xwn95BRCqw8km63C9JM87T63/F0q1/I+nRnvgDlVHl0/mPuT+lNNiZG2S/9l8CTtPJr91DNwIanOS0PTWGFBO+7AgSb+xA2rxR254PiSRIRRIkd7fS8dJmlKEwhoQJnjGJomNG4589Av/0oaBAGQqUQkwBUzBbY5h1EcwtTcSWbiHxylaSq+uQlHSu9vuDVxyYPw7/USPzNf7Rxr+XUEo1i0jO/eI3giyYdC317ZtZU/8ypvT/Wnqvo0QxrGw8H5nzg3zG/w3gHG38u09/eNZpepl8bU+lLU7DNffT8fR6zyUE9hTxKXylRaiyIKooQKopitkcQyX7/4NaFQepuPsiwpfPgtwtDx3+7GXy3S8A0WQrD6/8Act3PzMgGup4FYViaPF4Lp31TcZVzoHcpL/3sVb+Da4o2E/RDsAgRUSGAKuBIWmRAkhtbqT+7N9j7m5zTTfNgSlaMImqv16JKs7peqbDn31EOndmMXCcTawA2uONPLb2p7y963HQkYA+oSRQxVVHfp8JVcdgKANyk/6OV0rtdUe7/otuBDRIydf21De+irJbznBJK81BCfkpv+08J+NfD1yhjX/fkM4oPxN42yYWQEqCVSyYdB21FUegvNJWcwAR9BdnG/9sFmnjf2hoB2BwczNdH2gAhC+fRdE5UzzTIliTJuijYuG5+KfWOB1dpJTSdWl9SHqc7AJgRdYhqQ6P5srZ36O26kgM54m7mp4iisrQSD459y4mVR9rN/7ZUS/d7voQ0VfqIEdEJgLrbSIlIiRe207jtf/E3KLLnLyAGIrijx5Fxe3noUod656P0PPOC4OIDMXaDphuEyuASKKZp9b9gmW7HiOZ0mXoh8PI8ul8cPrXqK080qnRD8ArwKlKKb3vcojoCMAgJ90q094BSJRSBI8ZTen1J2ZCzRqX8U+pofT6E1Aljn+PRdr4Fw6lVB1wIdbgqAwCSHGggvOmfoGTa6/G7wu5o+AAoLZyNlfO+g61FXMyxj8bbfx7Ae0AaMBpZGzAoOS64wieNdkFdTRdCBiUXHM0/pnDMh0Qs1f/OgRaYNKO82nA9uxjIX8pCyZfx/zaK/DpSusec8SwBVxz9E8YVjoRlT/sr41/L6C3ADQHLHMyW2Ls++CfSSzb2e9LA/slAYPwx46i8q6L7FLd9cwjiMh44FFgZtYhBbCybjGPr/4pjbHteoDQQQgHyjmx9nJOGfdxQv6SjDj7Q3sZy/jrD7MX0A6ABgAR8WO1PT3RJramoK3cS9On/0lyhe4vU1D8BiWfOZ7S/zkTIzfrH3TZnycQkWrgOWBO1iEFUNe+mWc3/Jr39y4mpbsGOjK2fBanTryG6TXz8RmO1zpo49/raAdA00k+J0BSJrF/rKDlxicxGyJ5ztb0NqEPHUHF7edhDC8FvRLyNCJSDjwJnJB1SIkI0WQLb+14hGfW/5KEdgI6MYwAJ4z5ECeP+wiV4ZH2/X77db0Na5vyZn299y7aAdB0If0gWwGMSYusa8QUWv/3edp+9gp4cCzuQMM/sZrKe68gMGs45Br/XwP/qR+G3kJEAsBCIHsMrbWdJiY7W1fzwIrvUde+fnBvCYgiHCzjzInXcfyYSwjsT5jM/lDeBRboDn99g3YANDmIyG3ADTaRdZ2khNbvP0/bL17z9tTAfo5vYjWVd19E8JTxGZH9obgMK+yvs/49iogsJGt2ALZnbVu8gRc3/4X3dz9LQ2xnYZXzACWBKiYNOZZTx1/DqPJp9kPZxv91rN7+3pzHPQDQDoAmBxExsLYCTrKJrfTzRIrI79+i9bvPIy26zrm3CZ4wlrLbzyM4d1RGZH8orsMy/rrhj4fJk1SbwWq5bSbY3baed3Y9yZvb/0lHKlpQHV1BFBOHHMup4z/OhKqjD7TqByu/5WyllLcnk/VztAOgcSTtBCwG5tvElhMQS9J+1yu03vkSRBKu6DcQ8U0bSuX/XUxw7minKX/NWHv+y11RTtMj0k7ArcDVdB0lnMFKsE3F2Na8gsWb/sT6hleRAbotMLpsBieNu4ppQ+cT9pflK+8Dq6x1EXCL3uLqe7QDoMnLgSIBpIS2O1+k/adLMXUk4LDxja+i8pcXEzx5XEaU/fA7Uyn1QmG10hwu6XtoIZYjMCbrsEq/B5SwvXklL2z6Axsa3iCeivX7wUJ+X4iqopGcPeUzTBt6Cn4jmN3Ux36NtwG/x0r0GwThEG+gHQDNATlQeSBA7NHVtHz3OVKr6gqu20BA/AahBZMo/+5ZVqOftDjrbbrWv58jIsOAh8mtEgDb/ZQyE2xoeIP3dj/NzpbV1LVtJkWyYHoeNsqgMjiMMZUzmFZzMkcMO4NQoMz+DqdV/VvAdUqpdwqjpCaDdgA0ByXPKFQAhSnE39hO6w1P0PGObhbUE1TIT/g/T6Ds+hMxRpRmxLrWf4BiqxK4GhiZ520KIJ6K0BTdQ137ZlbseZZVdS8ST3m3BDdgBJlYfRzTh57M2MpZVIdHU+QrReV2rszmZaxEP73qdwHtAGi6RdoJeAan7QBTSK7bR8PH/64jAd0lYFD6pfmUfHU+RllRRpqz8kfvhQ44RCSM1TPAKUkQbM9lEZOE2UE00cLqupd4bdsD7PVQCWFJoJq5oz/AsaMvpiI0HL8RxFA++1vyKapr+z2AdgA03ca2n5lbIghISwdNX3+MjkfWIG06edcJ8RsExlVR9v/OIPShIzrFWW9rBC5VSi0prHaaQtGNJEHI83yuj2xjY8PrrN/3Grta1xNNtpFItvdpgyHDCBAywgT9JVSGRzC95mSmDDmBEWVT7Al9GQ5k0HWSn4fQDoCmR6QfXEvoWh0AmYSmjhTR+5fTfvdSkqvqwNT3eAZVVkTxJ+dS8tnj8dVWZsTZH9B64ENKqeyZ85oBSje3BjLYWuUJkXgTe9o20hDdTlN0N/si22iK7aE90UB7vIlosq3HyYQBo5iyYCWloSGUB2qoDI+kumQMNcW11BTXUhl2VPFgN/pLwEVKqeYeKaPpU7QDoOkxB3UCEilSW5uJ3LOMyK9eRXTnQPxjKyhbeC7BsyZhlAQzYqeuZ+frOv/BiYiUsN8RGNKNU7JS6k1iyTbiyShJs4NEqoOOVJSOZBuxZBsdyQiCgzMgEPSHCfnLKAlW4jeCBIwi/L4igr4wQV8YvxF0OKtb6BW/h9EOgOaQSDsBmYfVWNuh/ddUwiT+yhaav/goiU0NgzJBUHyKko8eTdmtZ1t7/YZjr3OAX2A9JHXXs0HOAe6tA3GAZ7kgIge02EqRLtE7oEno7h28g/1Gvx+VMAw+tAOgOSzSswOeAo7POrS/tGlLE+0/eYXoM+tJbW1CDYJtARX0YcwcRtlX5hO6cDoqmDcxahvwdaXU/YXVUNMfSDsDxcAngfPTXz2lJ8/5Q7k5Mwl9fwDWa6Pff9AOgOawEZEi4Hm69grI0Nk4KLFiN7HH1xL509uktjcPyIiACvoIzKslfPlsgmdMwJ9/rx/gbaz9/i2F01DTn0lvE3yLAycPFoL7gMeBx5RS+1zUQ3MYaAdA0yukGwZlwpajsg7vv846UiQ3N9B+zzKiv38LiQ6cVsK+kWWUfvN0QudNxRhacqBwP1j1z+fpoT6aQyUdHZgCfIqebRccCruxVvm/B9YqpQbOjTuI0Q6AplfpriMgKRNzewut336Wjmc2YLZ3QKL/tT5VIT9qRBnhK2ZT9oV5UF6EMrJys7qi6581fULaIagASoEQ8Gl6HinIJO3dA0SBdqBdD+UZmGgHQNMniMh44C90bRyUYf91lxKS7+8h9tgaOl7eQmJVHWZdu6fzBMSn8I+txD9nBKHzphD6wDSMIcU5b8t6vYv9hl+vnjQFI+0YwIGf9wKgndLBhXYANH3GQQahQNb1Z9a1k9rYQPzNHcRf3EzHG9uRvd6JkPvGVhCYN47QGRPwzx6Bf3I1qqRLeVS+h+fLwMf0Xr9Go/ES2gHQ9DnpJMFM17MRed5mKx9MIbEkZmsHiTd3EHt6PYklm0lubCiAtl3xjSqj6APTCV12BIGpNajiACrkB1+X7me63alGo+l3aAdAUzC6EREAp2tSBASSmxrpeGEjibd2kFy+h+S+CHQkUXETM55CmSaSMpGUdHsLQfyGVbJX5IeQH6M4iP+4URSdNpHgSbX4xlehFFahtMPpeb6tNvwajcbzaAdAU3C66QjYyb1OTcGsj5Da1Yq5L4Lsi5BqikIkgRlJQDSBRBJINIl0OGy5GwbGsBKMIcX4RpRhjCrDN6ocX20FqsjvqPZBdGzHMvq3KqU2d+N30mg0GlfRDoDGVURkNPAdLGcg3INTD3ztCkg8CUlBUmbOm0VhhfN9OYNMbN+hW+xj/2rfOwkLGo1GcxC0A6DxBAcpHzwU+rr72Xb2G/7+V7+o0WgGPdoB0HiOtDNQDNyM+x3PMmTqo78HRLXR12g0/R3tAGg8T7qO2Y/VB/0k+r7r2R4sY/8v4HUsg6+T+TQazYBCOwCafknaKRiGNT+9Jv1VhRUt6EnUIBPKfwKrWc8OpVRrryus0Wg0HkM7AJoBSdpBCGJFDnx53tamQ/kajUaj0Wg0Go1Go9FoNBqNRqPRaDQajUaj0Wg0Go1Go9FoNBqNRqPRaDQajUaj0Wg0Go1Go9FoNBqNRqPRaDQajUaj0Wg0Go1Go9FoNBqNRvP/24MDEgAAAABB/1+3I1ABAAAAAAAAAAAAAAAAAAAAAAAAAADgJmK9s61FD/+SAAAAAElFTkSuQmCC;fontStyle=1" vertex="1" parent="1">
          <mxGeometry x="371.19" y="170" width="98.74" height="98.74" as="geometry" />
        </mxCell>
        <mxCell id="C6Sp4-k7lOcV-1RX9fJF-2" value="" style="shape=image;verticalLabelPosition=bottom;labelBackgroundColor=default;verticalAlign=top;aspect=fixed;imageAspect=0;image=https://upload.wikimedia.org/wikipedia/commons/thumb/e/e1/Microsoft_Office_SharePoint_%282019%E2%80%93present%29.svg/2097px-Microsoft_Office_SharePoint_%282019%E2%80%93present%29.svg.png;fontStyle=1" vertex="1" parent="1">
          <mxGeometry x="750" y="170" width="90.21" height="88.12" as="geometry" />
        </mxCell>
        <mxCell id="C6Sp4-k7lOcV-1RX9fJF-3" value="" style="shape=image;verticalLabelPosition=bottom;labelBackgroundColor=default;verticalAlign=top;aspect=fixed;imageAspect=0;image=https://dynamics360.net/wp-content/uploads/2019/12/Dynamics-NAV-01-01-copy.svg;fontStyle=1" vertex="1" parent="1">
          <mxGeometry x="35.56" y="185.5" width="119.89" height="72.62" as="geometry" />
        </mxCell>
        <mxCell id="C6Sp4-k7lOcV-1RX9fJF-30" style="rounded=0;orthogonalLoop=1;jettySize=auto;html=1;exitX=1;exitY=0.25;exitDx=0;exitDy=0;startArrow=classic;startFill=1;strokeWidth=2;fontStyle=1;entryX=0;entryY=0.75;entryDx=0;entryDy=0;" edge="1" parent="1" source="C6Sp4-k7lOcV-1RX9fJF-10" target="C6Sp4-k7lOcV-1RX9fJF-29">
          <mxGeometry relative="1" as="geometry">
            <mxPoint x="772.64" y="370" as="targetPoint" />
          </mxGeometry>
        </mxCell>
        <mxCell id="C6Sp4-k7lOcV-1RX9fJF-37" value="&lt;font style=&quot;font-size: 13px;&quot;&gt;Budget&lt;/font&gt;" style="edgeLabel;html=1;align=center;verticalAlign=middle;resizable=0;points=[];fontFamily=Helvetica;fontStyle=1;labelBorderColor=default;" vertex="1" connectable="0" parent="C6Sp4-k7lOcV-1RX9fJF-30">
          <mxGeometry x="-0.1674" y="1" relative="1" as="geometry">
            <mxPoint x="-57" y="6" as="offset" />
          </mxGeometry>
        </mxCell>
        <mxCell id="C6Sp4-k7lOcV-1RX9fJF-10" value="&lt;font style=&quot;font-size: 15px;&quot;&gt;Project planning&lt;/font&gt;" style="rounded=1;whiteSpace=wrap;html=1;strokeWidth=3;fontStyle=1;arcSize=12;" vertex="1" parent="1">
          <mxGeometry x="377.44" y="429.38" width="100" height="49.38" as="geometry" />
        </mxCell>
        <mxCell id="C6Sp4-k7lOcV-1RX9fJF-38" style="edgeStyle=none;rounded=0;orthogonalLoop=1;jettySize=auto;html=1;startArrow=classic;startFill=1;strokeWidth=2;fontStyle=1;entryX=1;entryY=0.5;entryDx=0;entryDy=0;exitX=0;exitY=0.5;exitDx=0;exitDy=0;" edge="1" parent="1" source="C6Sp4-k7lOcV-1RX9fJF-11" target="C6Sp4-k7lOcV-1RX9fJF-35">
          <mxGeometry relative="1" as="geometry">
            <mxPoint x="319.86" y="605" as="sourcePoint" />
            <mxPoint x="129.86" y="660" as="targetPoint" />
          </mxGeometry>
        </mxCell>
        <mxCell id="C6Sp4-k7lOcV-1RX9fJF-53" value="&lt;font style=&quot;font-size: 13px;&quot;&gt;Hours&lt;/font&gt;" style="edgeLabel;html=1;align=center;verticalAlign=middle;resizable=0;points=[];fontSize=12;fontFamily=Helvetica;fontStyle=1;labelBorderColor=default;" vertex="1" connectable="0" parent="C6Sp4-k7lOcV-1RX9fJF-38">
          <mxGeometry x="-0.4863" y="-2" relative="1" as="geometry">
            <mxPoint x="-66" y="2" as="offset" />
          </mxGeometry>
        </mxCell>
        <mxCell id="C6Sp4-k7lOcV-1RX9fJF-11" value="&lt;font style=&quot;font-size: 15px;&quot;&gt;Timesheets&lt;/font&gt;" style="rounded=1;whiteSpace=wrap;html=1;fontStyle=1" vertex="1" parent="1">
          <mxGeometry x="372.29" y="580" width="94.87" height="35" as="geometry" />
        </mxCell>
        <mxCell id="C6Sp4-k7lOcV-1RX9fJF-26" style="edgeStyle=entityRelationEdgeStyle;rounded=0;orthogonalLoop=1;jettySize=auto;html=1;exitX=0;exitY=0.5;exitDx=0;exitDy=0;entryX=1;entryY=0.5;entryDx=0;entryDy=0;strokeWidth=2;fontStyle=1;elbow=vertical;" edge="1" parent="1" source="C6Sp4-k7lOcV-1RX9fJF-13" target="C6Sp4-k7lOcV-1RX9fJF-21">
          <mxGeometry relative="1" as="geometry" />
        </mxCell>
        <mxCell id="C6Sp4-k7lOcV-1RX9fJF-27" value="&lt;span style=&quot;text-align: left;&quot;&gt;&lt;font style=&quot;font-size: 13px;&quot;&gt;Place purchase&lt;/font&gt;&lt;/span&gt;" style="edgeLabel;html=1;align=center;verticalAlign=middle;resizable=0;points=[];fontSize=12;fontStyle=1;labelBorderColor=default;" vertex="1" connectable="0" parent="C6Sp4-k7lOcV-1RX9fJF-26">
          <mxGeometry x="-0.5507" y="-1" relative="1" as="geometry">
            <mxPoint x="-95" y="1" as="offset" />
          </mxGeometry>
        </mxCell>
        <mxCell id="C6Sp4-k7lOcV-1RX9fJF-13" value="&lt;span&gt;&lt;font style=&quot;font-size: 15px;&quot;&gt;Contracts docs&lt;/font&gt;&lt;/span&gt;" style="rounded=1;whiteSpace=wrap;html=1;fontStyle=1" vertex="1" parent="1">
          <mxGeometry x="759.3100000000001" y="630" width="88.39" height="50" as="geometry" />
        </mxCell>
        <mxCell id="C6Sp4-k7lOcV-1RX9fJF-31" style="rounded=0;orthogonalLoop=1;jettySize=auto;html=1;exitX=1;exitY=0.5;exitDx=0;exitDy=0;startArrow=classic;startFill=1;strokeWidth=2;fontStyle=1;entryX=0;entryY=0.25;entryDx=0;entryDy=0;" edge="1" parent="1" source="C6Sp4-k7lOcV-1RX9fJF-14" target="C6Sp4-k7lOcV-1RX9fJF-29">
          <mxGeometry relative="1" as="geometry">
            <mxPoint x="772.64" y="355" as="targetPoint" />
          </mxGeometry>
        </mxCell>
        <mxCell id="C6Sp4-k7lOcV-1RX9fJF-32" value="&lt;font style=&quot;font-size: 13px;&quot;&gt;Cashflow&lt;/font&gt;" style="edgeLabel;html=1;align=center;verticalAlign=middle;resizable=0;points=[];fontSize=12;fontFamily=Helvetica;fontStyle=1;labelBorderColor=default;" vertex="1" connectable="0" parent="C6Sp4-k7lOcV-1RX9fJF-31">
          <mxGeometry x="-0.2893" y="1" relative="1" as="geometry">
            <mxPoint x="-36" y="1" as="offset" />
          </mxGeometry>
        </mxCell>
        <mxCell id="C6Sp4-k7lOcV-1RX9fJF-14" value="&lt;font style=&quot;font-size: 15px;&quot;&gt;Progress&lt;/font&gt;" style="rounded=1;whiteSpace=wrap;html=1;arcSize=15;fontStyle=1" vertex="1" parent="1">
          <mxGeometry x="380" y="310" width="93.31" height="40" as="geometry" />
        </mxCell>
        <mxCell id="C6Sp4-k7lOcV-1RX9fJF-15" value="&lt;font style=&quot;font-size: 15px;&quot;&gt;Reports&lt;/font&gt;" style="rounded=1;whiteSpace=wrap;html=1;fontStyle=1" vertex="1" parent="1">
          <mxGeometry x="381.14" y="367.5" width="87.58" height="40" as="geometry" />
        </mxCell>
        <mxCell id="C6Sp4-k7lOcV-1RX9fJF-64" style="edgeStyle=entityRelationEdgeStyle;rounded=0;jumpStyle=arc;orthogonalLoop=1;jettySize=auto;html=1;exitX=0;exitY=0.5;exitDx=0;exitDy=0;entryX=1;entryY=0.25;entryDx=0;entryDy=0;fontFamily=Helvetica;fontSize=13;startArrow=classic;startFill=1;strokeWidth=2;elbow=vertical;fontStyle=1" edge="1" parent="1" source="C6Sp4-k7lOcV-1RX9fJF-16" target="C6Sp4-k7lOcV-1RX9fJF-20">
          <mxGeometry relative="1" as="geometry" />
        </mxCell>
        <mxCell id="C6Sp4-k7lOcV-1RX9fJF-72" value="&lt;b&gt;Business process &lt;br&gt;(RFI&amp;gt;RFQ&amp;gt;PO)&lt;/b&gt;" style="edgeLabel;html=1;align=center;verticalAlign=middle;resizable=0;points=[];fontSize=13;fontFamily=Helvetica;labelBorderColor=default;" vertex="1" connectable="0" parent="C6Sp4-k7lOcV-1RX9fJF-64">
          <mxGeometry x="0.0741" relative="1" as="geometry">
            <mxPoint x="-142" as="offset" />
          </mxGeometry>
        </mxCell>
        <mxCell id="C6Sp4-k7lOcV-1RX9fJF-16" value="&lt;font style=&quot;font-size: 15px;&quot;&gt;Specs documents&lt;/font&gt;" style="rounded=1;whiteSpace=wrap;html=1;fontStyle=1" vertex="1" parent="1">
          <mxGeometry x="750" y="270" width="97.7" height="50" as="geometry" />
        </mxCell>
        <mxCell id="C6Sp4-k7lOcV-1RX9fJF-55" style="edgeStyle=entityRelationEdgeStyle;rounded=0;jumpStyle=arc;orthogonalLoop=1;jettySize=auto;html=1;exitX=0;exitY=0.5;exitDx=0;exitDy=0;entryX=1;entryY=1;entryDx=0;entryDy=0;fontFamily=Helvetica;fontSize=13;startArrow=classic;startFill=1;strokeWidth=2;fontStyle=1" edge="1" parent="1" source="C6Sp4-k7lOcV-1RX9fJF-18" target="C6Sp4-k7lOcV-1RX9fJF-10">
          <mxGeometry relative="1" as="geometry" />
        </mxCell>
        <mxCell id="C6Sp4-k7lOcV-1RX9fJF-56" value="Supervisor &lt;br&gt;drawings&amp;nbsp;" style="edgeLabel;html=1;align=center;verticalAlign=middle;resizable=0;points=[];fontSize=13;fontFamily=Helvetica;fontStyle=1;labelBorderColor=default;" vertex="1" connectable="0" parent="C6Sp4-k7lOcV-1RX9fJF-55">
          <mxGeometry x="-0.2978" y="-2" relative="1" as="geometry">
            <mxPoint x="-16" y="-1" as="offset" />
          </mxGeometry>
        </mxCell>
        <mxCell id="C6Sp4-k7lOcV-1RX9fJF-18" value="&lt;font style=&quot;font-size: 15px;&quot;&gt;Drawing&lt;br&gt;&lt;b style=&quot;&quot;&gt;Revision&lt;/b&gt;&lt;/font&gt;" style="rounded=1;whiteSpace=wrap;html=1;fontStyle=1" vertex="1" parent="1">
          <mxGeometry x="755.5" y="562" width="97.04" height="45" as="geometry" />
        </mxCell>
        <mxCell id="C6Sp4-k7lOcV-1RX9fJF-41" style="edgeStyle=none;rounded=0;jumpStyle=arc;orthogonalLoop=1;jettySize=auto;html=1;exitX=1;exitY=0.5;exitDx=0;exitDy=0;entryX=0;entryY=0.907;entryDx=0;entryDy=0;startArrow=classic;startFill=1;strokeWidth=2;fontStyle=1;entryPerimeter=0;" edge="1" parent="1" source="C6Sp4-k7lOcV-1RX9fJF-19" target="C6Sp4-k7lOcV-1RX9fJF-10">
          <mxGeometry relative="1" as="geometry" />
        </mxCell>
        <mxCell id="C6Sp4-k7lOcV-1RX9fJF-48" value="&lt;span style=&quot;font-size: 13px;&quot;&gt;Instructions&amp;nbsp;&lt;br&gt;of work&lt;br&gt;&lt;/span&gt;" style="edgeLabel;html=1;align=center;verticalAlign=middle;resizable=0;points=[];fontStyle=1;labelBorderColor=default;" vertex="1" connectable="0" parent="C6Sp4-k7lOcV-1RX9fJF-41">
          <mxGeometry x="0.4237" y="-1" relative="1" as="geometry">
            <mxPoint x="-60" y="-1" as="offset" />
          </mxGeometry>
        </mxCell>
        <mxCell id="C6Sp4-k7lOcV-1RX9fJF-19" value="&lt;font style=&quot;font-size: 14px;&quot;&gt;Work orders&lt;/font&gt;" style="rounded=1;whiteSpace=wrap;html=1;fontStyle=1" vertex="1" parent="1">
          <mxGeometry x="24.439999999999998" y="429.38" width="85.56" height="40" as="geometry" />
        </mxCell>
        <mxCell id="C6Sp4-k7lOcV-1RX9fJF-42" style="rounded=0;jumpStyle=arc;orthogonalLoop=1;jettySize=auto;html=1;exitX=1;exitY=0.5;exitDx=0;exitDy=0;entryX=0;entryY=0.25;entryDx=0;entryDy=0;startArrow=none;startFill=0;strokeWidth=2;elbow=vertical;fontStyle=1" edge="1" parent="1" source="C6Sp4-k7lOcV-1RX9fJF-20" target="C6Sp4-k7lOcV-1RX9fJF-10">
          <mxGeometry relative="1" as="geometry" />
        </mxCell>
        <mxCell id="C6Sp4-k7lOcV-1RX9fJF-60" value="Procurement" style="edgeLabel;html=1;align=center;verticalAlign=middle;resizable=0;points=[];fontSize=13;fontFamily=Helvetica;fontStyle=1;labelBorderColor=default;" vertex="1" connectable="0" parent="C6Sp4-k7lOcV-1RX9fJF-42">
          <mxGeometry x="-0.1007" y="1" relative="1" as="geometry">
            <mxPoint x="-13" y="-10" as="offset" />
          </mxGeometry>
        </mxCell>
        <mxCell id="C6Sp4-k7lOcV-1RX9fJF-20" value="&lt;font style=&quot;font-size: 15px;&quot;&gt;Purchase orders&lt;/font&gt;" style="rounded=1;whiteSpace=wrap;html=1;fontStyle=1" vertex="1" parent="1">
          <mxGeometry x="32.74" y="280" width="81.44" height="50" as="geometry" />
        </mxCell>
        <mxCell id="C6Sp4-k7lOcV-1RX9fJF-21" value="&lt;font style=&quot;font-size: 15px;&quot;&gt;Critical path&lt;/font&gt;" style="rounded=1;whiteSpace=wrap;html=1;fontStyle=1" vertex="1" parent="1">
          <mxGeometry x="369.31" y="635" width="97.06" height="40" as="geometry" />
        </mxCell>
        <mxCell id="C6Sp4-k7lOcV-1RX9fJF-24" value="&lt;font style=&quot;font-size: 15px;&quot;&gt;Filed reports&lt;/font&gt;" style="rounded=1;whiteSpace=wrap;html=1;fontStyle=1" vertex="1" parent="1">
          <mxGeometry x="755.18" y="498" width="95.58" height="40" as="geometry" />
        </mxCell>
        <mxCell id="C6Sp4-k7lOcV-1RX9fJF-39" style="rounded=0;orthogonalLoop=1;jettySize=auto;html=1;exitX=0;exitY=0.75;exitDx=0;exitDy=0;entryX=1;entryY=0.25;entryDx=0;entryDy=0;startArrow=none;startFill=0;strokeWidth=2;fontStyle=1" edge="1" parent="1" source="C6Sp4-k7lOcV-1RX9fJF-25" target="C6Sp4-k7lOcV-1RX9fJF-35">
          <mxGeometry relative="1" as="geometry" />
        </mxCell>
        <mxCell id="C6Sp4-k7lOcV-1RX9fJF-58" value="Hours" style="edgeLabel;html=1;align=center;verticalAlign=middle;resizable=0;points=[];fontSize=13;fontFamily=Helvetica;fontStyle=1;labelBorderColor=default;" vertex="1" connectable="0" parent="C6Sp4-k7lOcV-1RX9fJF-39">
          <mxGeometry x="-0.1861" y="-4" relative="1" as="geometry">
            <mxPoint x="-29" y="8" as="offset" />
          </mxGeometry>
        </mxCell>
        <mxCell id="C6Sp4-k7lOcV-1RX9fJF-40" style="edgeStyle=none;rounded=0;orthogonalLoop=1;jettySize=auto;html=1;exitX=0;exitY=0.25;exitDx=0;exitDy=0;entryX=1;entryY=0.5;entryDx=0;entryDy=0;startArrow=none;startFill=0;jumpStyle=arc;strokeWidth=2;fontStyle=1" edge="1" parent="1" source="C6Sp4-k7lOcV-1RX9fJF-25" target="C6Sp4-k7lOcV-1RX9fJF-34">
          <mxGeometry relative="1" as="geometry" />
        </mxCell>
        <mxCell id="C6Sp4-k7lOcV-1RX9fJF-57" value="Resource planning" style="edgeLabel;html=1;align=center;verticalAlign=middle;resizable=0;points=[];fontSize=13;fontFamily=Helvetica;fontStyle=1;labelBorderColor=default;" vertex="1" connectable="0" parent="C6Sp4-k7lOcV-1RX9fJF-40">
          <mxGeometry x="-0.3458" relative="1" as="geometry">
            <mxPoint x="-36" y="4" as="offset" />
          </mxGeometry>
        </mxCell>
        <mxCell id="C6Sp4-k7lOcV-1RX9fJF-25" value="&lt;font style=&quot;font-size: 15px;&quot;&gt;Holiday Planning&lt;/font&gt;" style="rounded=1;whiteSpace=wrap;html=1;fontStyle=1" vertex="1" parent="1">
          <mxGeometry x="377.44000000000005" y="505" width="93.75" height="50" as="geometry" />
        </mxCell>
        <mxCell id="C6Sp4-k7lOcV-1RX9fJF-29" value="&lt;span&gt;&lt;font style=&quot;font-size: 15px;&quot;&gt;Project Planning&lt;/font&gt;&lt;/span&gt;" style="rounded=1;whiteSpace=wrap;html=1;fontStyle=1" vertex="1" parent="1">
          <mxGeometry x="760" y="340" width="90.76" height="45" as="geometry" />
        </mxCell>
        <mxCell id="C6Sp4-k7lOcV-1RX9fJF-34" value="&lt;font style=&quot;font-size: 15px;&quot;&gt;Planning&lt;/font&gt;" style="rounded=1;whiteSpace=wrap;html=1;fontStyle=1" vertex="1" parent="1">
          <mxGeometry x="27.44" y="500" width="74.88" height="38" as="geometry" />
        </mxCell>
        <mxCell id="C6Sp4-k7lOcV-1RX9fJF-35" value="&lt;font style=&quot;font-size: 15px;&quot;&gt;Salary&lt;/font&gt;" style="rounded=1;whiteSpace=wrap;html=1;fontStyle=1" vertex="1" parent="1">
          <mxGeometry x="27.439999999999998" y="580" width="72.88" height="30" as="geometry" />
        </mxCell>
        <mxCell id="C6Sp4-k7lOcV-1RX9fJF-70" style="edgeStyle=none;rounded=0;jumpStyle=arc;orthogonalLoop=1;jettySize=auto;html=1;entryX=0;entryY=0.5;entryDx=0;entryDy=0;fontFamily=Helvetica;fontSize=13;startArrow=none;startFill=0;strokeWidth=2;elbow=vertical;exitX=1;exitY=0.5;exitDx=0;exitDy=0;" edge="1" parent="1" source="C6Sp4-k7lOcV-1RX9fJF-47" target="C6Sp4-k7lOcV-1RX9fJF-10">
          <mxGeometry relative="1" as="geometry">
            <mxPoint x="120" y="380" as="sourcePoint" />
          </mxGeometry>
        </mxCell>
        <mxCell id="C6Sp4-k7lOcV-1RX9fJF-71" value="Attached to WO&lt;br&gt;Drawing planning" style="edgeLabel;html=1;align=center;verticalAlign=middle;resizable=0;points=[];fontSize=13;fontFamily=Helvetica;fontStyle=1;labelBorderColor=default;" vertex="1" connectable="0" parent="C6Sp4-k7lOcV-1RX9fJF-70">
          <mxGeometry x="-0.084" relative="1" as="geometry">
            <mxPoint x="-16" y="-3" as="offset" />
          </mxGeometry>
        </mxCell>
        <mxCell id="C6Sp4-k7lOcV-1RX9fJF-47" value="&lt;font style=&quot;font-size: 15px;&quot;&gt;Drawings&lt;/font&gt;" style="rounded=1;whiteSpace=wrap;html=1;fontStyle=1" vertex="1" parent="1">
          <mxGeometry x="30" y="360" width="80" height="35" as="geometry" />
        </mxCell>
        <mxCell id="C6Sp4-k7lOcV-1RX9fJF-50" style="rounded=0;jumpStyle=arc;orthogonalLoop=1;jettySize=auto;html=1;exitX=0;exitY=0.5;exitDx=0;exitDy=0;startArrow=classic;startFill=1;strokeWidth=2;fontStyle=1" edge="1" parent="1" source="C6Sp4-k7lOcV-1RX9fJF-49">
          <mxGeometry relative="1" as="geometry">
            <mxPoint x="769.6" y="450" as="sourcePoint" />
            <mxPoint x="480" y="460" as="targetPoint" />
          </mxGeometry>
        </mxCell>
        <mxCell id="C6Sp4-k7lOcV-1RX9fJF-51" value="&lt;font data-font-src=&quot;https://fonts.googleapis.com/css?family=calibri&quot; style=&quot;font-size: 13px;&quot;&gt;&lt;span style=&quot;text-align: start; font-size: 13px;&quot;&gt;RFQs and POs to suppliers&lt;/span&gt;&lt;br style=&quot;font-size: 13px;&quot;&gt;&lt;/font&gt;&lt;span style=&quot;text-align: start; font-size: 13px;&quot;&gt;&lt;font data-font-src=&quot;https://fonts.googleapis.com/css?family=calibri&quot; style=&quot;font-size: 13px;&quot;&gt;VTCs Sales Ord&lt;/font&gt;&lt;font data-font-src=&quot;https://fonts.googleapis.com/css?family=calibri&quot; style=&quot;font-size: 13px;&quot;&gt;ers&lt;br style=&quot;font-size: 13px;&quot;&gt;VTC PO Amendments&lt;/font&gt;&lt;br style=&quot;font-size: 13px;&quot;&gt;&lt;/span&gt;" style="edgeLabel;html=1;align=center;verticalAlign=middle;resizable=0;points=[];fontStyle=1;fontSize=13;labelBorderColor=default;" vertex="1" connectable="0" parent="C6Sp4-k7lOcV-1RX9fJF-50">
          <mxGeometry x="-0.1682" y="1" relative="1" as="geometry">
            <mxPoint x="15" y="-1" as="offset" />
          </mxGeometry>
        </mxCell>
        <mxCell id="C6Sp4-k7lOcV-1RX9fJF-49" value="&lt;span style=&quot;font-size: 15px;&quot;&gt;Sharepoint&lt;br&gt;Links&lt;/span&gt;" style="rounded=1;whiteSpace=wrap;html=1;fillColor=default;fontStyle=1" vertex="1" parent="1">
          <mxGeometry x="755.5" y="420" width="99.76" height="51.25" as="geometry" />
        </mxCell>
        <mxCell id="C6Sp4-k7lOcV-1RX9fJF-80" style="edgeStyle=none;rounded=0;jumpStyle=arc;orthogonalLoop=1;jettySize=auto;html=1;exitX=0.5;exitY=1;exitDx=0;exitDy=0;fontFamily=Helvetica;fontSize=15;fontColor=#000000;startArrow=none;startFill=0;strokeWidth=2;elbow=vertical;" edge="1" parent="1" source="C6Sp4-k7lOcV-1RX9fJF-24" target="C6Sp4-k7lOcV-1RX9fJF-24">
          <mxGeometry relative="1" as="geometry" />
        </mxCell>
      </root>
    </mxGraphModel>
  </diagram>
</mxfile>
